<svg width="306" height="116" viewBox="0 0 306 116" fill="none" xmlns="http://www.w3.org/2000/svg">
<g filter="url(#filter0_d_148_48)">
<mask id="path-1-outside-1_148_48" maskUnits="userSpaceOnUse" x="-2" y="-2" width="300" height="110" fill="black">
<rect fill="white" x="-2" y="-2" width="300" height="110"/>
<path d="M0.230469 24V0H7.42578V7.20703H9.82812V0H17.0234V9.60938H12.2305V12H17.0234V24H9.82812V16.8047H7.42578V24H0.230469ZM19.4258 24V19.207H26.6211V16.8047H21.8164V12H19.4258V0H26.6211V9.60938H29.0234V0H36.2188V12H33.8164V16.8047H31.4258V19.207H29.0234V24H19.4258ZM48.2188 9.60938V4.80469H45.8164V9.60938H48.2188ZM38.6211 24V0H55.4141V14.4023H45.8164V24H38.6211ZM57.8164 24V0H72.207V4.80469H65.0117V19.207H72.207V24H57.8164ZM79.4141 24V4.80469H74.6211V0H91.4141V4.80469H86.6211V24H79.4141ZM103.414 19.207V14.4023H101.012V19.207H103.414ZM93.8164 24V0H101.012V9.60938H110.609V24H93.8164ZM113.012 24V0H120.207V24H113.012ZM122.621 24V0H129.816V9.60938H132.219V0H139.414V24H132.219V14.4023H129.816V24H122.621ZM159.805 9.60938V4.80469H157.402V9.60938H159.805ZM150.207 24V0H167V24H159.805V14.4023H157.402V24H150.207ZM179 19.207V14.4023H176.598V19.207H179ZM179 9.60938V4.80469H176.598V9.60938H179ZM169.402 24V0H186.195V9.60938H183.793V12H186.195V24H169.402ZM193.391 24V4.80469H188.598V0H205.391V4.80469H200.598V24H193.391ZM217.391 19.207V4.80469H214.988V19.207H217.391ZM207.793 24V0H224.586V24H207.793ZM236.586 9.60938V4.80469H234.184V9.60938H236.586ZM226.988 24V0H243.781V14.4023H234.184V24H226.988ZM255.781 19.207V14.4023H253.379V19.207H255.781ZM246.184 24V0H253.379V9.60938H262.977V24H246.184ZM265.379 24V0H272.574V24H265.379ZM283.379 14.4023V9.60938H295.379V14.4023H283.379ZM10.4141 65V41H17.6094V45.8047H20.0117V50.6094H24.8047V45.8047H27.207V41H34.4141V65H27.207V55.4023H24.8047V60.207H20.0117V55.4023H17.6094V65H10.4141ZM36.8047 65V41H44V65H36.8047ZM56.0117 60.207V45.8047H53.6094V60.207H56.0117ZM46.4141 65V41H60.8047V43.4023H63.207V62.6094H60.8047V65H46.4141ZM75.207 60.207V45.8047H72.8047V60.207H75.207ZM65.6094 65V41H80V43.4023H82.4023V62.6094H80V65H65.6094ZM84.8047 65V41H92V60.207H99.1953V65H84.8047ZM101.609 65V41H118.402V45.8047H108.805V50.6094H116V55.4023H108.805V60.207H118.402V65H101.609ZM129.195 65V41H145.988V45.8047H136.391V50.6094H143.586V55.4023H136.391V65H129.195ZM157.988 50.6094V45.8047H155.586V50.6094H157.988ZM148.391 65V41H165.184V50.6094H162.781V53H165.184V65H157.988V55.4023H155.586V65H148.391ZM177.184 60.207V45.8047H174.781V60.207H177.184ZM167.586 65V41H184.379V65H167.586ZM186.781 65V41H193.977V45.8047H196.379V50.6094H198.781V41H205.977V65H198.781V60.207H196.379V55.4023H193.977V65H186.781ZM213.184 65V45.8047H208.391V41H225.184V45.8047H220.391V65H213.184ZM227.586 65V41H244.379V45.8047H234.781V50.6094H241.977V55.4023H234.781V60.207H244.379V65H227.586ZM246.781 65V41H253.977V45.8047H256.379V50.6094H258.781V41H265.977V65H258.781V60.207H256.379V55.4023H253.977V65H246.781ZM277.988 60.207V45.8047H275.586V60.207H277.988ZM268.391 65V41H282.781V43.4023H285.184V62.6094H282.781V65H268.391ZM73.4141 101.207V86.8047H71.0117V101.207H73.4141ZM63.8164 106V82H78.207V84.4023H80.6094V103.609H78.207V106H63.8164ZM83.0117 106V82H99.8047V86.8047H90.207V91.6094H97.4023V96.4023H90.207V101.207H99.8047V106H83.0117ZM107 106V101.207H104.598V96.4023H102.207V82H109.402V91.6094H111.805V82H119V96.4023H116.598V101.207H114.207V106H107ZM121.402 106V82H138.195V86.8047H128.598V91.6094H135.793V96.4023H128.598V101.207H138.195V106H121.402ZM140.598 106V82H147.793V101.207H154.988V106H140.598ZM167 101.207V86.8047H164.598V101.207H167ZM157.402 106V82H174.195V106H157.402ZM186.195 91.6094V86.8047H183.793V91.6094H186.195ZM176.598 106V82H193.391V96.4023H183.793V106H176.598ZM195.793 106V82H212.586V86.8047H202.988V91.6094H210.184V96.4023H202.988V101.207H212.586V106H195.793ZM224.586 91.6094V86.8047H222.184V91.6094H224.586ZM214.988 106V82H231.781V91.6094H229.379V94H231.781V106H224.586V96.4023H222.184V106H214.988Z"/>
</mask>
<path d="M0.230469 24V0H7.42578V7.20703H9.82812V0H17.0234V9.60938H12.2305V12H17.0234V24H9.82812V16.8047H7.42578V24H0.230469ZM19.4258 24V19.207H26.6211V16.8047H21.8164V12H19.4258V0H26.6211V9.60938H29.0234V0H36.2188V12H33.8164V16.8047H31.4258V19.207H29.0234V24H19.4258ZM48.2188 9.60938V4.80469H45.8164V9.60938H48.2188ZM38.6211 24V0H55.4141V14.4023H45.8164V24H38.6211ZM57.8164 24V0H72.207V4.80469H65.0117V19.207H72.207V24H57.8164ZM79.4141 24V4.80469H74.6211V0H91.4141V4.80469H86.6211V24H79.4141ZM103.414 19.207V14.4023H101.012V19.207H103.414ZM93.8164 24V0H101.012V9.60938H110.609V24H93.8164ZM113.012 24V0H120.207V24H113.012ZM122.621 24V0H129.816V9.60938H132.219V0H139.414V24H132.219V14.4023H129.816V24H122.621ZM159.805 9.60938V4.80469H157.402V9.60938H159.805ZM150.207 24V0H167V24H159.805V14.4023H157.402V24H150.207ZM179 19.207V14.4023H176.598V19.207H179ZM179 9.60938V4.80469H176.598V9.60938H179ZM169.402 24V0H186.195V9.60938H183.793V12H186.195V24H169.402ZM193.391 24V4.80469H188.598V0H205.391V4.80469H200.598V24H193.391ZM217.391 19.207V4.80469H214.988V19.207H217.391ZM207.793 24V0H224.586V24H207.793ZM236.586 9.60938V4.80469H234.184V9.60938H236.586ZM226.988 24V0H243.781V14.4023H234.184V24H226.988ZM255.781 19.207V14.4023H253.379V19.207H255.781ZM246.184 24V0H253.379V9.60938H262.977V24H246.184ZM265.379 24V0H272.574V24H265.379ZM283.379 14.4023V9.60938H295.379V14.4023H283.379ZM10.4141 65V41H17.6094V45.8047H20.0117V50.6094H24.8047V45.8047H27.207V41H34.4141V65H27.207V55.4023H24.8047V60.207H20.0117V55.4023H17.6094V65H10.4141ZM36.8047 65V41H44V65H36.8047ZM56.0117 60.207V45.8047H53.6094V60.207H56.0117ZM46.4141 65V41H60.8047V43.4023H63.207V62.6094H60.8047V65H46.4141ZM75.207 60.207V45.8047H72.8047V60.207H75.207ZM65.6094 65V41H80V43.4023H82.4023V62.6094H80V65H65.6094ZM84.8047 65V41H92V60.207H99.1953V65H84.8047ZM101.609 65V41H118.402V45.8047H108.805V50.6094H116V55.4023H108.805V60.207H118.402V65H101.609ZM129.195 65V41H145.988V45.8047H136.391V50.6094H143.586V55.4023H136.391V65H129.195ZM157.988 50.6094V45.8047H155.586V50.6094H157.988ZM148.391 65V41H165.184V50.6094H162.781V53H165.184V65H157.988V55.4023H155.586V65H148.391ZM177.184 60.207V45.8047H174.781V60.207H177.184ZM167.586 65V41H184.379V65H167.586ZM186.781 65V41H193.977V45.8047H196.379V50.6094H198.781V41H205.977V65H198.781V60.207H196.379V55.4023H193.977V65H186.781ZM213.184 65V45.8047H208.391V41H225.184V45.8047H220.391V65H213.184ZM227.586 65V41H244.379V45.8047H234.781V50.6094H241.977V55.4023H234.781V60.207H244.379V65H227.586ZM246.781 65V41H253.977V45.8047H256.379V50.6094H258.781V41H265.977V65H258.781V60.207H256.379V55.4023H253.977V65H246.781ZM277.988 60.207V45.8047H275.586V60.207H277.988ZM268.391 65V41H282.781V43.4023H285.184V62.6094H282.781V65H268.391ZM73.4141 101.207V86.8047H71.0117V101.207H73.4141ZM63.8164 106V82H78.207V84.4023H80.6094V103.609H78.207V106H63.8164ZM83.0117 106V82H99.8047V86.8047H90.207V91.6094H97.4023V96.4023H90.207V101.207H99.8047V106H83.0117ZM107 106V101.207H104.598V96.4023H102.207V82H109.402V91.6094H111.805V82H119V96.4023H116.598V101.207H114.207V106H107ZM121.402 106V82H138.195V86.8047H128.598V91.6094H135.793V96.4023H128.598V101.207H138.195V106H121.402ZM140.598 106V82H147.793V101.207H154.988V106H140.598ZM167 101.207V86.8047H164.598V101.207H167ZM157.402 106V82H174.195V106H157.402ZM186.195 91.6094V86.8047H183.793V91.6094H186.195ZM176.598 106V82H193.391V96.4023H183.793V106H176.598ZM195.793 106V82H212.586V86.8047H202.988V91.6094H210.184V96.4023H202.988V101.207H212.586V106H195.793ZM224.586 91.6094V86.8047H222.184V91.6094H224.586ZM214.988 106V82H231.781V91.6094H229.379V94H231.781V106H224.586V96.4023H222.184V106H214.988Z" fill="#EEC30B"/>
<path d="M0.230469 24H-1.76953V26H0.230469V24ZM0.230469 0V-2H-1.76953V0H0.230469ZM7.42578 0H9.42578V-2H7.42578V0ZM7.42578 7.20703H5.42578V9.20703H7.42578V7.20703ZM9.82812 7.20703V9.20703H11.8281V7.20703H9.82812ZM9.82812 0V-2H7.82812V0H9.82812ZM17.0234 0H19.0234V-2H17.0234V0ZM17.0234 9.60938V11.6094H19.0234V9.60938H17.0234ZM12.2305 9.60938V7.60938H10.2305V9.60938H12.2305ZM12.2305 12H10.2305V14H12.2305V12ZM17.0234 12H19.0234V10H17.0234V12ZM17.0234 24V26H19.0234V24H17.0234ZM9.82812 24H7.82812V26H9.82812V24ZM9.82812 16.8047H11.8281V14.8047H9.82812V16.8047ZM7.42578 16.8047V14.8047H5.42578V16.8047H7.42578ZM7.42578 24V26H9.42578V24H7.42578ZM2.23047 24V0H-1.76953V24H2.23047ZM0.230469 2H7.42578V-2H0.230469V2ZM5.42578 0V7.20703H9.42578V0H5.42578ZM7.42578 9.20703H9.82812V5.20703H7.42578V9.20703ZM11.8281 7.20703V0H7.82812V7.20703H11.8281ZM9.82812 2H17.0234V-2H9.82812V2ZM15.0234 0V9.60938H19.0234V0H15.0234ZM17.0234 7.60938H12.2305V11.6094H17.0234V7.60938ZM10.2305 9.60938V12H14.2305V9.60938H10.2305ZM12.2305 14H17.0234V10H12.2305V14ZM15.0234 12V24H19.0234V12H15.0234ZM17.0234 22H9.82812V26H17.0234V22ZM11.8281 24V16.8047H7.82812V24H11.8281ZM9.82812 14.8047H7.42578V18.8047H9.82812V14.8047ZM5.42578 16.8047V24H9.42578V16.8047H5.42578ZM7.42578 22H0.230469V26H7.42578V22ZM19.4258 24H17.4258V26H19.4258V24ZM19.4258 19.207V17.207H17.4258V19.207H19.4258ZM26.6211 19.207V21.207H28.6211V19.207H26.6211ZM26.6211 16.8047H28.6211V14.8047H26.6211V16.8047ZM21.8164 16.8047H19.8164V18.8047H21.8164V16.8047ZM21.8164 12H23.8164V10H21.8164V12ZM19.4258 12H17.4258V14H19.4258V12ZM19.4258 0V-2H17.4258V0H19.4258ZM26.6211 0H28.6211V-2H26.6211V0ZM26.6211 9.60938H24.6211V11.6094H26.6211V9.60938ZM29.0234 9.60938V11.6094H31.0234V9.60938H29.0234ZM29.0234 0V-2H27.0234V0H29.0234ZM36.2188 0H38.2188V-2H36.2188V0ZM36.2188 12V14H38.2188V12H36.2188ZM33.8164 12V10H31.8164V12H33.8164ZM33.8164 16.8047V18.8047H35.8164V16.8047H33.8164ZM31.4258 16.8047V14.8047H29.4258V16.8047H31.4258ZM31.4258 19.207V21.207H33.4258V19.207H31.4258ZM29.0234 19.207V17.207H27.0234V19.207H29.0234ZM29.0234 24V26H31.0234V24H29.0234ZM21.4258 24V19.207H17.4258V24H21.4258ZM19.4258 21.207H26.6211V17.207H19.4258V21.207ZM28.6211 19.207V16.8047H24.6211V19.207H28.6211ZM26.6211 14.8047H21.8164V18.8047H26.6211V14.8047ZM23.8164 16.8047V12H19.8164V16.8047H23.8164ZM21.8164 10H19.4258V14H21.8164V10ZM21.4258 12V0H17.4258V12H21.4258ZM19.4258 2H26.6211V-2H19.4258V2ZM24.6211 0V9.60938H28.6211V0H24.6211ZM26.6211 11.6094H29.0234V7.60938H26.6211V11.6094ZM31.0234 9.60938V0H27.0234V9.60938H31.0234ZM29.0234 2H36.2188V-2H29.0234V2ZM34.2188 0V12H38.2188V0H34.2188ZM36.2188 10H33.8164V14H36.2188V10ZM31.8164 12V16.8047H35.8164V12H31.8164ZM33.8164 14.8047H31.4258V18.8047H33.8164V14.8047ZM29.4258 16.8047V19.207H33.4258V16.8047H29.4258ZM31.4258 17.207H29.0234V21.207H31.4258V17.207ZM27.0234 19.207V24H31.0234V19.207H27.0234ZM29.0234 22H19.4258V26H29.0234V22ZM48.2188 9.60938V11.6094H50.2188V9.60938H48.2188ZM48.2188 4.80469H50.2188V2.80469H48.2188V4.80469ZM45.8164 4.80469V2.80469H43.8164V4.80469H45.8164ZM45.8164 9.60938H43.8164V11.6094H45.8164V9.60938ZM38.6211 24H36.6211V26H38.6211V24ZM38.6211 0V-2H36.6211V0H38.6211ZM55.4141 0H57.4141V-2H55.4141V0ZM55.4141 14.4023V16.4023H57.4141V14.4023H55.4141ZM45.8164 14.4023V12.4023H43.8164V14.4023H45.8164ZM45.8164 24V26H47.8164V24H45.8164ZM50.2188 9.60938V4.80469H46.2188V9.60938H50.2188ZM48.2188 2.80469H45.8164V6.80469H48.2188V2.80469ZM43.8164 4.80469V9.60938H47.8164V4.80469H43.8164ZM45.8164 11.6094H48.2188V7.60938H45.8164V11.6094ZM40.6211 24V0H36.6211V24H40.6211ZM38.6211 2H55.4141V-2H38.6211V2ZM53.4141 0V14.4023H57.4141V0H53.4141ZM55.4141 12.4023H45.8164V16.4023H55.4141V12.4023ZM43.8164 14.4023V24H47.8164V14.4023H43.8164ZM45.8164 22H38.6211V26H45.8164V22ZM57.8164 24H55.8164V26H57.8164V24ZM57.8164 0V-2H55.8164V0H57.8164ZM72.207 0H74.207V-2H72.207V0ZM72.207 4.80469V6.80469H74.207V4.80469H72.207ZM65.0117 4.80469V2.80469H63.0117V4.80469H65.0117ZM65.0117 19.207H63.0117V21.207H65.0117V19.207ZM72.207 19.207H74.207V17.207H72.207V19.207ZM72.207 24V26H74.207V24H72.207ZM59.8164 24V0H55.8164V24H59.8164ZM57.8164 2H72.207V-2H57.8164V2ZM70.207 0V4.80469H74.207V0H70.207ZM72.207 2.80469H65.0117V6.80469H72.207V2.80469ZM63.0117 4.80469V19.207H67.0117V4.80469H63.0117ZM65.0117 21.207H72.207V17.207H65.0117V21.207ZM70.207 19.207V24H74.207V19.207H70.207ZM72.207 22H57.8164V26H72.207V22ZM79.4141 24H77.4141V26H79.4141V24ZM79.4141 4.80469H81.4141V2.80469H79.4141V4.80469ZM74.6211 4.80469H72.6211V6.80469H74.6211V4.80469ZM74.6211 0V-2H72.6211V0H74.6211ZM91.4141 0H93.4141V-2H91.4141V0ZM91.4141 4.80469V6.80469H93.4141V4.80469H91.4141ZM86.6211 4.80469V2.80469H84.6211V4.80469H86.6211ZM86.6211 24V26H88.6211V24H86.6211ZM81.4141 24V4.80469H77.4141V24H81.4141ZM79.4141 2.80469H74.6211V6.80469H79.4141V2.80469ZM76.6211 4.80469V0H72.6211V4.80469H76.6211ZM74.6211 2H91.4141V-2H74.6211V2ZM89.4141 0V4.80469H93.4141V0H89.4141ZM91.4141 2.80469H86.6211V6.80469H91.4141V2.80469ZM84.6211 4.80469V24H88.6211V4.80469H84.6211ZM86.6211 22H79.4141V26H86.6211V22ZM103.414 19.207V21.207H105.414V19.207H103.414ZM103.414 14.4023H105.414V12.4023H103.414V14.4023ZM101.012 14.4023V12.4023H99.0117V14.4023H101.012ZM101.012 19.207H99.0117V21.207H101.012V19.207ZM93.8164 24H91.8164V26H93.8164V24ZM93.8164 0V-2H91.8164V0H93.8164ZM101.012 0H103.012V-2H101.012V0ZM101.012 9.60938H99.0117V11.6094H101.012V9.60938ZM110.609 9.60938H112.609V7.60938H110.609V9.60938ZM110.609 24V26H112.609V24H110.609ZM113.012 24H111.012V26H113.012V24ZM113.012 0V-2H111.012V0H113.012ZM120.207 0H122.207V-2H120.207V0ZM120.207 24V26H122.207V24H120.207ZM105.414 19.207V14.4023H101.414V19.207H105.414ZM103.414 12.4023H101.012V16.4023H103.414V12.4023ZM99.0117 14.4023V19.207H103.012V14.4023H99.0117ZM101.012 21.207H103.414V17.207H101.012V21.207ZM95.8164 24V0H91.8164V24H95.8164ZM93.8164 2H101.012V-2H93.8164V2ZM99.0117 0V9.60938H103.012V0H99.0117ZM101.012 11.6094H110.609V7.60938H101.012V11.6094ZM108.609 9.60938V24H112.609V9.60938H108.609ZM110.609 22H93.8164V26H110.609V22ZM115.012 24V0H111.012V24H115.012ZM113.012 2H120.207V-2H113.012V2ZM118.207 0V24H122.207V0H118.207ZM120.207 22H113.012V26H120.207V22ZM122.621 24H120.621V26H122.621V24ZM122.621 0V-2H120.621V0H122.621ZM129.816 0H131.816V-2H129.816V0ZM129.816 9.60938H127.816V11.6094H129.816V9.60938ZM132.219 9.60938V11.6094H134.219V9.60938H132.219ZM132.219 0V-2H130.219V0H132.219ZM139.414 0H141.414V-2H139.414V0ZM139.414 24V26H141.414V24H139.414ZM132.219 24H130.219V26H132.219V24ZM132.219 14.4023H134.219V12.4023H132.219V14.4023ZM129.816 14.4023V12.4023H127.816V14.4023H129.816ZM129.816 24V26H131.816V24H129.816ZM124.621 24V0H120.621V24H124.621ZM122.621 2H129.816V-2H122.621V2ZM127.816 0V9.60938H131.816V0H127.816ZM129.816 11.6094H132.219V7.60938H129.816V11.6094ZM134.219 9.60938V0H130.219V9.60938H134.219ZM132.219 2H139.414V-2H132.219V2ZM137.414 0V24H141.414V0H137.414ZM139.414 22H132.219V26H139.414V22ZM134.219 24V14.4023H130.219V24H134.219ZM132.219 12.4023H129.816V16.4023H132.219V12.4023ZM127.816 14.4023V24H131.816V14.4023H127.816ZM129.816 22H122.621V26H129.816V22ZM159.805 9.60938V11.6094H161.805V9.60938H159.805ZM159.805 4.80469H161.805V2.80469H159.805V4.80469ZM157.402 4.80469V2.80469H155.402V4.80469H157.402ZM157.402 9.60938H155.402V11.6094H157.402V9.60938ZM150.207 24H148.207V26H150.207V24ZM150.207 0V-2H148.207V0H150.207ZM167 0H169V-2H167V0ZM167 24V26H169V24H167ZM159.805 24H157.805V26H159.805V24ZM159.805 14.4023H161.805V12.4023H159.805V14.4023ZM157.402 14.4023V12.4023H155.402V14.4023H157.402ZM157.402 24V26H159.402V24H157.402ZM161.805 9.60938V4.80469H157.805V9.60938H161.805ZM159.805 2.80469H157.402V6.80469H159.805V2.80469ZM155.402 4.80469V9.60938H159.402V4.80469H155.402ZM157.402 11.6094H159.805V7.60938H157.402V11.6094ZM152.207 24V0H148.207V24H152.207ZM150.207 2H167V-2H150.207V2ZM165 0V24H169V0H165ZM167 22H159.805V26H167V22ZM161.805 24V14.4023H157.805V24H161.805ZM159.805 12.4023H157.402V16.4023H159.805V12.4023ZM155.402 14.4023V24H159.402V14.4023H155.402ZM157.402 22H150.207V26H157.402V22ZM179 19.207V21.207H181V19.207H179ZM179 14.4023H181V12.4023H179V14.4023ZM176.598 14.4023V12.4023H174.598V14.4023H176.598ZM176.598 19.207H174.598V21.207H176.598V19.207ZM179 9.60938V11.6094H181V9.60938H179ZM179 4.80469H181V2.80469H179V4.80469ZM176.598 4.80469V2.80469H174.598V4.80469H176.598ZM176.598 9.60938H174.598V11.6094H176.598V9.60938ZM169.402 24H167.402V26H169.402V24ZM169.402 0V-2H167.402V0H169.402ZM186.195 0H188.195V-2H186.195V0ZM186.195 9.60938V11.6094H188.195V9.60938H186.195ZM183.793 9.60938V7.60938H181.793V9.60938H183.793ZM183.793 12H181.793V14H183.793V12ZM186.195 12H188.195V10H186.195V12ZM186.195 24V26H188.195V24H186.195ZM181 19.207V14.4023H177V19.207H181ZM179 12.4023H176.598V16.4023H179V12.4023ZM174.598 14.4023V19.207H178.598V14.4023H174.598ZM176.598 21.207H179V17.207H176.598V21.207ZM181 9.60938V4.80469H177V9.60938H181ZM179 2.80469H176.598V6.80469H179V2.80469ZM174.598 4.80469V9.60938H178.598V4.80469H174.598ZM176.598 11.6094H179V7.60938H176.598V11.6094ZM171.402 24V0H167.402V24H171.402ZM169.402 2H186.195V-2H169.402V2ZM184.195 0V9.60938H188.195V0H184.195ZM186.195 7.60938H183.793V11.6094H186.195V7.60938ZM181.793 9.60938V12H185.793V9.60938H181.793ZM183.793 14H186.195V10H183.793V14ZM184.195 12V24H188.195V12H184.195ZM186.195 22H169.402V26H186.195V22ZM193.391 24H191.391V26H193.391V24ZM193.391 4.80469H195.391V2.80469H193.391V4.80469ZM188.598 4.80469H186.598V6.80469H188.598V4.80469ZM188.598 0V-2H186.598V0H188.598ZM205.391 0H207.391V-2H205.391V0ZM205.391 4.80469V6.80469H207.391V4.80469H205.391ZM200.598 4.80469V2.80469H198.598V4.80469H200.598ZM200.598 24V26H202.598V24H200.598ZM195.391 24V4.80469H191.391V24H195.391ZM193.391 2.80469H188.598V6.80469H193.391V2.80469ZM190.598 4.80469V0H186.598V4.80469H190.598ZM188.598 2H205.391V-2H188.598V2ZM203.391 0V4.80469H207.391V0H203.391ZM205.391 2.80469H200.598V6.80469H205.391V2.80469ZM198.598 4.80469V24H202.598V4.80469H198.598ZM200.598 22H193.391V26H200.598V22ZM217.391 19.207V21.207H219.391V19.207H217.391ZM217.391 4.80469H219.391V2.80469H217.391V4.80469ZM214.988 4.80469V2.80469H212.988V4.80469H214.988ZM214.988 19.207H212.988V21.207H214.988V19.207ZM207.793 24H205.793V26H207.793V24ZM207.793 0V-2H205.793V0H207.793ZM224.586 0H226.586V-2H224.586V0ZM224.586 24V26H226.586V24H224.586ZM219.391 19.207V4.80469H215.391V19.207H219.391ZM217.391 2.80469H214.988V6.80469H217.391V2.80469ZM212.988 4.80469V19.207H216.988V4.80469H212.988ZM214.988 21.207H217.391V17.207H214.988V21.207ZM209.793 24V0H205.793V24H209.793ZM207.793 2H224.586V-2H207.793V2ZM222.586 0V24H226.586V0H222.586ZM224.586 22H207.793V26H224.586V22ZM236.586 9.60938V11.6094H238.586V9.60938H236.586ZM236.586 4.80469H238.586V2.80469H236.586V4.80469ZM234.184 4.80469V2.80469H232.184V4.80469H234.184ZM234.184 9.60938H232.184V11.6094H234.184V9.60938ZM226.988 24H224.988V26H226.988V24ZM226.988 0V-2H224.988V0H226.988ZM243.781 0H245.781V-2H243.781V0ZM243.781 14.4023V16.4023H245.781V14.4023H243.781ZM234.184 14.4023V12.4023H232.184V14.4023H234.184ZM234.184 24V26H236.184V24H234.184ZM238.586 9.60938V4.80469H234.586V9.60938H238.586ZM236.586 2.80469H234.184V6.80469H236.586V2.80469ZM232.184 4.80469V9.60938H236.184V4.80469H232.184ZM234.184 11.6094H236.586V7.60938H234.184V11.6094ZM228.988 24V0H224.988V24H228.988ZM226.988 2H243.781V-2H226.988V2ZM241.781 0V14.4023H245.781V0H241.781ZM243.781 12.4023H234.184V16.4023H243.781V12.4023ZM232.184 14.4023V24H236.184V14.4023H232.184ZM234.184 22H226.988V26H234.184V22ZM255.781 19.207V21.207H257.781V19.207H255.781ZM255.781 14.4023H257.781V12.4023H255.781V14.4023ZM253.379 14.4023V12.4023H251.379V14.4023H253.379ZM253.379 19.207H251.379V21.207H253.379V19.207ZM246.184 24H244.184V26H246.184V24ZM246.184 0V-2H244.184V0H246.184ZM253.379 0H255.379V-2H253.379V0ZM253.379 9.60938H251.379V11.6094H253.379V9.60938ZM262.977 9.60938H264.977V7.60938H262.977V9.60938ZM262.977 24V26H264.977V24H262.977ZM265.379 24H263.379V26H265.379V24ZM265.379 0V-2H263.379V0H265.379ZM272.574 0H274.574V-2H272.574V0ZM272.574 24V26H274.574V24H272.574ZM257.781 19.207V14.4023H253.781V19.207H257.781ZM255.781 12.4023H253.379V16.4023H255.781V12.4023ZM251.379 14.4023V19.207H255.379V14.4023H251.379ZM253.379 21.207H255.781V17.207H253.379V21.207ZM248.184 24V0H244.184V24H248.184ZM246.184 2H253.379V-2H246.184V2ZM251.379 0V9.60938H255.379V0H251.379ZM253.379 11.6094H262.977V7.60938H253.379V11.6094ZM260.977 9.60938V24H264.977V9.60938H260.977ZM262.977 22H246.184V26H262.977V22ZM267.379 24V0H263.379V24H267.379ZM265.379 2H272.574V-2H265.379V2ZM270.574 0V24H274.574V0H270.574ZM272.574 22H265.379V26H272.574V22ZM283.379 14.4023H281.379V16.4023H283.379V14.4023ZM283.379 9.60938V7.60938H281.379V9.60938H283.379ZM295.379 9.60938H297.379V7.60938H295.379V9.60938ZM295.379 14.4023V16.4023H297.379V14.4023H295.379ZM285.379 14.4023V9.60938H281.379V14.4023H285.379ZM283.379 11.6094H295.379V7.60938H283.379V11.6094ZM293.379 9.60938V14.4023H297.379V9.60938H293.379ZM295.379 12.4023H283.379V16.4023H295.379V12.4023ZM10.4141 65H8.41406V67H10.4141V65ZM10.4141 41V39H8.41406V41H10.4141ZM17.6094 41H19.6094V39H17.6094V41ZM17.6094 45.8047H15.6094V47.8047H17.6094V45.8047ZM20.0117 45.8047H22.0117V43.8047H20.0117V45.8047ZM20.0117 50.6094H18.0117V52.6094H20.0117V50.6094ZM24.8047 50.6094V52.6094H26.8047V50.6094H24.8047ZM24.8047 45.8047V43.8047H22.8047V45.8047H24.8047ZM27.207 45.8047V47.8047H29.207V45.8047H27.207ZM27.207 41V39H25.207V41H27.207ZM34.4141 41H36.4141V39H34.4141V41ZM34.4141 65V67H36.4141V65H34.4141ZM27.207 65H25.207V67H27.207V65ZM27.207 55.4023H29.207V53.4023H27.207V55.4023ZM24.8047 55.4023V53.4023H22.8047V55.4023H24.8047ZM24.8047 60.207V62.207H26.8047V60.207H24.8047ZM20.0117 60.207H18.0117V62.207H20.0117V60.207ZM20.0117 55.4023H22.0117V53.4023H20.0117V55.4023ZM17.6094 55.4023V53.4023H15.6094V55.4023H17.6094ZM17.6094 65V67H19.6094V65H17.6094ZM12.4141 65V41H8.41406V65H12.4141ZM10.4141 43H17.6094V39H10.4141V43ZM15.6094 41V45.8047H19.6094V41H15.6094ZM17.6094 47.8047H20.0117V43.8047H17.6094V47.8047ZM18.0117 45.8047V50.6094H22.0117V45.8047H18.0117ZM20.0117 52.6094H24.8047V48.6094H20.0117V52.6094ZM26.8047 50.6094V45.8047H22.8047V50.6094H26.8047ZM24.8047 47.8047H27.207V43.8047H24.8047V47.8047ZM29.207 45.8047V41H25.207V45.8047H29.207ZM27.207 43H34.4141V39H27.207V43ZM32.4141 41V65H36.4141V41H32.4141ZM34.4141 63H27.207V67H34.4141V63ZM29.207 65V55.4023H25.207V65H29.207ZM27.207 53.4023H24.8047V57.4023H27.207V53.4023ZM22.8047 55.4023V60.207H26.8047V55.4023H22.8047ZM24.8047 58.207H20.0117V62.207H24.8047V58.207ZM22.0117 60.207V55.4023H18.0117V60.207H22.0117ZM20.0117 53.4023H17.6094V57.4023H20.0117V53.4023ZM15.6094 55.4023V65H19.6094V55.4023H15.6094ZM17.6094 63H10.4141V67H17.6094V63ZM36.8047 65H34.8047V67H36.8047V65ZM36.8047 41V39H34.8047V41H36.8047ZM44 41H46V39H44V41ZM44 65V67H46V65H44ZM38.8047 65V41H34.8047V65H38.8047ZM36.8047 43H44V39H36.8047V43ZM42 41V65H46V41H42ZM44 63H36.8047V67H44V63ZM56.0117 60.207V62.207H58.0117V60.207H56.0117ZM56.0117 45.8047H58.0117V43.8047H56.0117V45.8047ZM53.6094 45.8047V43.8047H51.6094V45.8047H53.6094ZM53.6094 60.207H51.6094V62.207H53.6094V60.207ZM46.4141 65H44.4141V67H46.4141V65ZM46.4141 41V39H44.4141V41H46.4141ZM60.8047 41H62.8047V39H60.8047V41ZM60.8047 43.4023H58.8047V45.4023H60.8047V43.4023ZM63.207 43.4023H65.207V41.4023H63.207V43.4023ZM63.207 62.6094V64.6094H65.207V62.6094H63.207ZM60.8047 62.6094V60.6094H58.8047V62.6094H60.8047ZM60.8047 65V67H62.8047V65H60.8047ZM58.0117 60.207V45.8047H54.0117V60.207H58.0117ZM56.0117 43.8047H53.6094V47.8047H56.0117V43.8047ZM51.6094 45.8047V60.207H55.6094V45.8047H51.6094ZM53.6094 62.207H56.0117V58.207H53.6094V62.207ZM48.4141 65V41H44.4141V65H48.4141ZM46.4141 43H60.8047V39H46.4141V43ZM58.8047 41V43.4023H62.8047V41H58.8047ZM60.8047 45.4023H63.207V41.4023H60.8047V45.4023ZM61.207 43.4023V62.6094H65.207V43.4023H61.207ZM63.207 60.6094H60.8047V64.6094H63.207V60.6094ZM58.8047 62.6094V65H62.8047V62.6094H58.8047ZM60.8047 63H46.4141V67H60.8047V63ZM75.207 60.207V62.207H77.207V60.207H75.207ZM75.207 45.8047H77.207V43.8047H75.207V45.8047ZM72.8047 45.8047V43.8047H70.8047V45.8047H72.8047ZM72.8047 60.207H70.8047V62.207H72.8047V60.207ZM65.6094 65H63.6094V67H65.6094V65ZM65.6094 41V39H63.6094V41H65.6094ZM80 41H82V39H80V41ZM80 43.4023H78V45.4023H80V43.4023ZM82.4023 43.4023H84.4023V41.4023H82.4023V43.4023ZM82.4023 62.6094V64.6094H84.4023V62.6094H82.4023ZM80 62.6094V60.6094H78V62.6094H80ZM80 65V67H82V65H80ZM77.207 60.207V45.8047H73.207V60.207H77.207ZM75.207 43.8047H72.8047V47.8047H75.207V43.8047ZM70.8047 45.8047V60.207H74.8047V45.8047H70.8047ZM72.8047 62.207H75.207V58.207H72.8047V62.207ZM67.6094 65V41H63.6094V65H67.6094ZM65.6094 43H80V39H65.6094V43ZM78 41V43.4023H82V41H78ZM80 45.4023H82.4023V41.4023H80V45.4023ZM80.4023 43.4023V62.6094H84.4023V43.4023H80.4023ZM82.4023 60.6094H80V64.6094H82.4023V60.6094ZM78 62.6094V65H82V62.6094H78ZM80 63H65.6094V67H80V63ZM84.8047 65H82.8047V67H84.8047V65ZM84.8047 41V39H82.8047V41H84.8047ZM92 41H94V39H92V41ZM92 60.207H90V62.207H92V60.207ZM99.1953 60.207H101.195V58.207H99.1953V60.207ZM99.1953 65V67H101.195V65H99.1953ZM86.8047 65V41H82.8047V65H86.8047ZM84.8047 43H92V39H84.8047V43ZM90 41V60.207H94V41H90ZM92 62.207H99.1953V58.207H92V62.207ZM97.1953 60.207V65H101.195V60.207H97.1953ZM99.1953 63H84.8047V67H99.1953V63ZM101.609 65H99.6094V67H101.609V65ZM101.609 41V39H99.6094V41H101.609ZM118.402 41H120.402V39H118.402V41ZM118.402 45.8047V47.8047H120.402V45.8047H118.402ZM108.805 45.8047V43.8047H106.805V45.8047H108.805ZM108.805 50.6094H106.805V52.6094H108.805V50.6094ZM116 50.6094H118V48.6094H116V50.6094ZM116 55.4023V57.4023H118V55.4023H116ZM108.805 55.4023V53.4023H106.805V55.4023H108.805ZM108.805 60.207H106.805V62.207H108.805V60.207ZM118.402 60.207H120.402V58.207H118.402V60.207ZM118.402 65V67H120.402V65H118.402ZM103.609 65V41H99.6094V65H103.609ZM101.609 43H118.402V39H101.609V43ZM116.402 41V45.8047H120.402V41H116.402ZM118.402 43.8047H108.805V47.8047H118.402V43.8047ZM106.805 45.8047V50.6094H110.805V45.8047H106.805ZM108.805 52.6094H116V48.6094H108.805V52.6094ZM114 50.6094V55.4023H118V50.6094H114ZM116 53.4023H108.805V57.4023H116V53.4023ZM106.805 55.4023V60.207H110.805V55.4023H106.805ZM108.805 62.207H118.402V58.207H108.805V62.207ZM116.402 60.207V65H120.402V60.207H116.402ZM118.402 63H101.609V67H118.402V63ZM129.195 65H127.195V67H129.195V65ZM129.195 41V39H127.195V41H129.195ZM145.988 41H147.988V39H145.988V41ZM145.988 45.8047V47.8047H147.988V45.8047H145.988ZM136.391 45.8047V43.8047H134.391V45.8047H136.391ZM136.391 50.6094H134.391V52.6094H136.391V50.6094ZM143.586 50.6094H145.586V48.6094H143.586V50.6094ZM143.586 55.4023V57.4023H145.586V55.4023H143.586ZM136.391 55.4023V53.4023H134.391V55.4023H136.391ZM136.391 65V67H138.391V65H136.391ZM131.195 65V41H127.195V65H131.195ZM129.195 43H145.988V39H129.195V43ZM143.988 41V45.8047H147.988V41H143.988ZM145.988 43.8047H136.391V47.8047H145.988V43.8047ZM134.391 45.8047V50.6094H138.391V45.8047H134.391ZM136.391 52.6094H143.586V48.6094H136.391V52.6094ZM141.586 50.6094V55.4023H145.586V50.6094H141.586ZM143.586 53.4023H136.391V57.4023H143.586V53.4023ZM134.391 55.4023V65H138.391V55.4023H134.391ZM136.391 63H129.195V67H136.391V63ZM157.988 50.6094V52.6094H159.988V50.6094H157.988ZM157.988 45.8047H159.988V43.8047H157.988V45.8047ZM155.586 45.8047V43.8047H153.586V45.8047H155.586ZM155.586 50.6094H153.586V52.6094H155.586V50.6094ZM148.391 65H146.391V67H148.391V65ZM148.391 41V39H146.391V41H148.391ZM165.184 41H167.184V39H165.184V41ZM165.184 50.6094V52.6094H167.184V50.6094H165.184ZM162.781 50.6094V48.6094H160.781V50.6094H162.781ZM162.781 53H160.781V55H162.781V53ZM165.184 53H167.184V51H165.184V53ZM165.184 65V67H167.184V65H165.184ZM157.988 65H155.988V67H157.988V65ZM157.988 55.4023H159.988V53.4023H157.988V55.4023ZM155.586 55.4023V53.4023H153.586V55.4023H155.586ZM155.586 65V67H157.586V65H155.586ZM159.988 50.6094V45.8047H155.988V50.6094H159.988ZM157.988 43.8047H155.586V47.8047H157.988V43.8047ZM153.586 45.8047V50.6094H157.586V45.8047H153.586ZM155.586 52.6094H157.988V48.6094H155.586V52.6094ZM150.391 65V41H146.391V65H150.391ZM148.391 43H165.184V39H148.391V43ZM163.184 41V50.6094H167.184V41H163.184ZM165.184 48.6094H162.781V52.6094H165.184V48.6094ZM160.781 50.6094V53H164.781V50.6094H160.781ZM162.781 55H165.184V51H162.781V55ZM163.184 53V65H167.184V53H163.184ZM165.184 63H157.988V67H165.184V63ZM159.988 65V55.4023H155.988V65H159.988ZM157.988 53.4023H155.586V57.4023H157.988V53.4023ZM153.586 55.4023V65H157.586V55.4023H153.586ZM155.586 63H148.391V67H155.586V63ZM177.184 60.207V62.207H179.184V60.207H177.184ZM177.184 45.8047H179.184V43.8047H177.184V45.8047ZM174.781 45.8047V43.8047H172.781V45.8047H174.781ZM174.781 60.207H172.781V62.207H174.781V60.207ZM167.586 65H165.586V67H167.586V65ZM167.586 41V39H165.586V41H167.586ZM184.379 41H186.379V39H184.379V41ZM184.379 65V67H186.379V65H184.379ZM179.184 60.207V45.8047H175.184V60.207H179.184ZM177.184 43.8047H174.781V47.8047H177.184V43.8047ZM172.781 45.8047V60.207H176.781V45.8047H172.781ZM174.781 62.207H177.184V58.207H174.781V62.207ZM169.586 65V41H165.586V65H169.586ZM167.586 43H184.379V39H167.586V43ZM182.379 41V65H186.379V41H182.379ZM184.379 63H167.586V67H184.379V63ZM186.781 65H184.781V67H186.781V65ZM186.781 41V39H184.781V41H186.781ZM193.977 41H195.977V39H193.977V41ZM193.977 45.8047H191.977V47.8047H193.977V45.8047ZM196.379 45.8047H198.379V43.8047H196.379V45.8047ZM196.379 50.6094H194.379V52.6094H196.379V50.6094ZM198.781 50.6094V52.6094H200.781V50.6094H198.781ZM198.781 41V39H196.781V41H198.781ZM205.977 41H207.977V39H205.977V41ZM205.977 65V67H207.977V65H205.977ZM198.781 65H196.781V67H198.781V65ZM198.781 60.207H200.781V58.207H198.781V60.207ZM196.379 60.207H194.379V62.207H196.379V60.207ZM196.379 55.4023H198.379V53.4023H196.379V55.4023ZM193.977 55.4023V53.4023H191.977V55.4023H193.977ZM193.977 65V67H195.977V65H193.977ZM188.781 65V41H184.781V65H188.781ZM186.781 43H193.977V39H186.781V43ZM191.977 41V45.8047H195.977V41H191.977ZM193.977 47.8047H196.379V43.8047H193.977V47.8047ZM194.379 45.8047V50.6094H198.379V45.8047H194.379ZM196.379 52.6094H198.781V48.6094H196.379V52.6094ZM200.781 50.6094V41H196.781V50.6094H200.781ZM198.781 43H205.977V39H198.781V43ZM203.977 41V65H207.977V41H203.977ZM205.977 63H198.781V67H205.977V63ZM200.781 65V60.207H196.781V65H200.781ZM198.781 58.207H196.379V62.207H198.781V58.207ZM198.379 60.207V55.4023H194.379V60.207H198.379ZM196.379 53.4023H193.977V57.4023H196.379V53.4023ZM191.977 55.4023V65H195.977V55.4023H191.977ZM193.977 63H186.781V67H193.977V63ZM213.184 65H211.184V67H213.184V65ZM213.184 45.8047H215.184V43.8047H213.184V45.8047ZM208.391 45.8047H206.391V47.8047H208.391V45.8047ZM208.391 41V39H206.391V41H208.391ZM225.184 41H227.184V39H225.184V41ZM225.184 45.8047V47.8047H227.184V45.8047H225.184ZM220.391 45.8047V43.8047H218.391V45.8047H220.391ZM220.391 65V67H222.391V65H220.391ZM215.184 65V45.8047H211.184V65H215.184ZM213.184 43.8047H208.391V47.8047H213.184V43.8047ZM210.391 45.8047V41H206.391V45.8047H210.391ZM208.391 43H225.184V39H208.391V43ZM223.184 41V45.8047H227.184V41H223.184ZM225.184 43.8047H220.391V47.8047H225.184V43.8047ZM218.391 45.8047V65H222.391V45.8047H218.391ZM220.391 63H213.184V67H220.391V63ZM227.586 65H225.586V67H227.586V65ZM227.586 41V39H225.586V41H227.586ZM244.379 41H246.379V39H244.379V41ZM244.379 45.8047V47.8047H246.379V45.8047H244.379ZM234.781 45.8047V43.8047H232.781V45.8047H234.781ZM234.781 50.6094H232.781V52.6094H234.781V50.6094ZM241.977 50.6094H243.977V48.6094H241.977V50.6094ZM241.977 55.4023V57.4023H243.977V55.4023H241.977ZM234.781 55.4023V53.4023H232.781V55.4023H234.781ZM234.781 60.207H232.781V62.207H234.781V60.207ZM244.379 60.207H246.379V58.207H244.379V60.207ZM244.379 65V67H246.379V65H244.379ZM229.586 65V41H225.586V65H229.586ZM227.586 43H244.379V39H227.586V43ZM242.379 41V45.8047H246.379V41H242.379ZM244.379 43.8047H234.781V47.8047H244.379V43.8047ZM232.781 45.8047V50.6094H236.781V45.8047H232.781ZM234.781 52.6094H241.977V48.6094H234.781V52.6094ZM239.977 50.6094V55.4023H243.977V50.6094H239.977ZM241.977 53.4023H234.781V57.4023H241.977V53.4023ZM232.781 55.4023V60.207H236.781V55.4023H232.781ZM234.781 62.207H244.379V58.207H234.781V62.207ZM242.379 60.207V65H246.379V60.207H242.379ZM244.379 63H227.586V67H244.379V63ZM246.781 65H244.781V67H246.781V65ZM246.781 41V39H244.781V41H246.781ZM253.977 41H255.977V39H253.977V41ZM253.977 45.8047H251.977V47.8047H253.977V45.8047ZM256.379 45.8047H258.379V43.8047H256.379V45.8047ZM256.379 50.6094H254.379V52.6094H256.379V50.6094ZM258.781 50.6094V52.6094H260.781V50.6094H258.781ZM258.781 41V39H256.781V41H258.781ZM265.977 41H267.977V39H265.977V41ZM265.977 65V67H267.977V65H265.977ZM258.781 65H256.781V67H258.781V65ZM258.781 60.207H260.781V58.207H258.781V60.207ZM256.379 60.207H254.379V62.207H256.379V60.207ZM256.379 55.4023H258.379V53.4023H256.379V55.4023ZM253.977 55.4023V53.4023H251.977V55.4023H253.977ZM253.977 65V67H255.977V65H253.977ZM248.781 65V41H244.781V65H248.781ZM246.781 43H253.977V39H246.781V43ZM251.977 41V45.8047H255.977V41H251.977ZM253.977 47.8047H256.379V43.8047H253.977V47.8047ZM254.379 45.8047V50.6094H258.379V45.8047H254.379ZM256.379 52.6094H258.781V48.6094H256.379V52.6094ZM260.781 50.6094V41H256.781V50.6094H260.781ZM258.781 43H265.977V39H258.781V43ZM263.977 41V65H267.977V41H263.977ZM265.977 63H258.781V67H265.977V63ZM260.781 65V60.207H256.781V65H260.781ZM258.781 58.207H256.379V62.207H258.781V58.207ZM258.379 60.207V55.4023H254.379V60.207H258.379ZM256.379 53.4023H253.977V57.4023H256.379V53.4023ZM251.977 55.4023V65H255.977V55.4023H251.977ZM253.977 63H246.781V67H253.977V63ZM277.988 60.207V62.207H279.988V60.207H277.988ZM277.988 45.8047H279.988V43.8047H277.988V45.8047ZM275.586 45.8047V43.8047H273.586V45.8047H275.586ZM275.586 60.207H273.586V62.207H275.586V60.207ZM268.391 65H266.391V67H268.391V65ZM268.391 41V39H266.391V41H268.391ZM282.781 41H284.781V39H282.781V41ZM282.781 43.4023H280.781V45.4023H282.781V43.4023ZM285.184 43.4023H287.184V41.4023H285.184V43.4023ZM285.184 62.6094V64.6094H287.184V62.6094H285.184ZM282.781 62.6094V60.6094H280.781V62.6094H282.781ZM282.781 65V67H284.781V65H282.781ZM279.988 60.207V45.8047H275.988V60.207H279.988ZM277.988 43.8047H275.586V47.8047H277.988V43.8047ZM273.586 45.8047V60.207H277.586V45.8047H273.586ZM275.586 62.207H277.988V58.207H275.586V62.207ZM270.391 65V41H266.391V65H270.391ZM268.391 43H282.781V39H268.391V43ZM280.781 41V43.4023H284.781V41H280.781ZM282.781 45.4023H285.184V41.4023H282.781V45.4023ZM283.184 43.4023V62.6094H287.184V43.4023H283.184ZM285.184 60.6094H282.781V64.6094H285.184V60.6094ZM280.781 62.6094V65H284.781V62.6094H280.781ZM282.781 63H268.391V67H282.781V63ZM73.4141 101.207V103.207H75.4141V101.207H73.4141ZM73.4141 86.8047H75.4141V84.8047H73.4141V86.8047ZM71.0117 86.8047V84.8047H69.0117V86.8047H71.0117ZM71.0117 101.207H69.0117V103.207H71.0117V101.207ZM63.8164 106H61.8164V108H63.8164V106ZM63.8164 82V80H61.8164V82H63.8164ZM78.207 82H80.207V80H78.207V82ZM78.207 84.4023H76.207V86.4023H78.207V84.4023ZM80.6094 84.4023H82.6094V82.4023H80.6094V84.4023ZM80.6094 103.609V105.609H82.6094V103.609H80.6094ZM78.207 103.609V101.609H76.207V103.609H78.207ZM78.207 106V108H80.207V106H78.207ZM75.4141 101.207V86.8047H71.4141V101.207H75.4141ZM73.4141 84.8047H71.0117V88.8047H73.4141V84.8047ZM69.0117 86.8047V101.207H73.0117V86.8047H69.0117ZM71.0117 103.207H73.4141V99.207H71.0117V103.207ZM65.8164 106V82H61.8164V106H65.8164ZM63.8164 84H78.207V80H63.8164V84ZM76.207 82V84.4023H80.207V82H76.207ZM78.207 86.4023H80.6094V82.4023H78.207V86.4023ZM78.6094 84.4023V103.609H82.6094V84.4023H78.6094ZM80.6094 101.609H78.207V105.609H80.6094V101.609ZM76.207 103.609V106H80.207V103.609H76.207ZM78.207 104H63.8164V108H78.207V104ZM83.0117 106H81.0117V108H83.0117V106ZM83.0117 82V80H81.0117V82H83.0117ZM99.8047 82H101.805V80H99.8047V82ZM99.8047 86.8047V88.8047H101.805V86.8047H99.8047ZM90.207 86.8047V84.8047H88.207V86.8047H90.207ZM90.207 91.6094H88.207V93.6094H90.207V91.6094ZM97.4023 91.6094H99.4023V89.6094H97.4023V91.6094ZM97.4023 96.4023V98.4023H99.4023V96.4023H97.4023ZM90.207 96.4023V94.4023H88.207V96.4023H90.207ZM90.207 101.207H88.207V103.207H90.207V101.207ZM99.8047 101.207H101.805V99.207H99.8047V101.207ZM99.8047 106V108H101.805V106H99.8047ZM85.0117 106V82H81.0117V106H85.0117ZM83.0117 84H99.8047V80H83.0117V84ZM97.8047 82V86.8047H101.805V82H97.8047ZM99.8047 84.8047H90.207V88.8047H99.8047V84.8047ZM88.207 86.8047V91.6094H92.207V86.8047H88.207ZM90.207 93.6094H97.4023V89.6094H90.207V93.6094ZM95.4023 91.6094V96.4023H99.4023V91.6094H95.4023ZM97.4023 94.4023H90.207V98.4023H97.4023V94.4023ZM88.207 96.4023V101.207H92.207V96.4023H88.207ZM90.207 103.207H99.8047V99.207H90.207V103.207ZM97.8047 101.207V106H101.805V101.207H97.8047ZM99.8047 104H83.0117V108H99.8047V104ZM107 106H105V108H107V106ZM107 101.207H109V99.207H107V101.207ZM104.598 101.207H102.598V103.207H104.598V101.207ZM104.598 96.4023H106.598V94.4023H104.598V96.4023ZM102.207 96.4023H100.207V98.4023H102.207V96.4023ZM102.207 82V80H100.207V82H102.207ZM109.402 82H111.402V80H109.402V82ZM109.402 91.6094H107.402V93.6094H109.402V91.6094ZM111.805 91.6094V93.6094H113.805V91.6094H111.805ZM111.805 82V80H109.805V82H111.805ZM119 82H121V80H119V82ZM119 96.4023V98.4023H121V96.4023H119ZM116.598 96.4023V94.4023H114.598V96.4023H116.598ZM116.598 101.207V103.207H118.598V101.207H116.598ZM114.207 101.207V99.207H112.207V101.207H114.207ZM114.207 106V108H116.207V106H114.207ZM109 106V101.207H105V106H109ZM107 99.207H104.598V103.207H107V99.207ZM106.598 101.207V96.4023H102.598V101.207H106.598ZM104.598 94.4023H102.207V98.4023H104.598V94.4023ZM104.207 96.4023V82H100.207V96.4023H104.207ZM102.207 84H109.402V80H102.207V84ZM107.402 82V91.6094H111.402V82H107.402ZM109.402 93.6094H111.805V89.6094H109.402V93.6094ZM113.805 91.6094V82H109.805V91.6094H113.805ZM111.805 84H119V80H111.805V84ZM117 82V96.4023H121V82H117ZM119 94.4023H116.598V98.4023H119V94.4023ZM114.598 96.4023V101.207H118.598V96.4023H114.598ZM116.598 99.207H114.207V103.207H116.598V99.207ZM112.207 101.207V106H116.207V101.207H112.207ZM114.207 104H107V108H114.207V104ZM121.402 106H119.402V108H121.402V106ZM121.402 82V80H119.402V82H121.402ZM138.195 82H140.195V80H138.195V82ZM138.195 86.8047V88.8047H140.195V86.8047H138.195ZM128.598 86.8047V84.8047H126.598V86.8047H128.598ZM128.598 91.6094H126.598V93.6094H128.598V91.6094ZM135.793 91.6094H137.793V89.6094H135.793V91.6094ZM135.793 96.4023V98.4023H137.793V96.4023H135.793ZM128.598 96.4023V94.4023H126.598V96.4023H128.598ZM128.598 101.207H126.598V103.207H128.598V101.207ZM138.195 101.207H140.195V99.207H138.195V101.207ZM138.195 106V108H140.195V106H138.195ZM123.402 106V82H119.402V106H123.402ZM121.402 84H138.195V80H121.402V84ZM136.195 82V86.8047H140.195V82H136.195ZM138.195 84.8047H128.598V88.8047H138.195V84.8047ZM126.598 86.8047V91.6094H130.598V86.8047H126.598ZM128.598 93.6094H135.793V89.6094H128.598V93.6094ZM133.793 91.6094V96.4023H137.793V91.6094H133.793ZM135.793 94.4023H128.598V98.4023H135.793V94.4023ZM126.598 96.4023V101.207H130.598V96.4023H126.598ZM128.598 103.207H138.195V99.207H128.598V103.207ZM136.195 101.207V106H140.195V101.207H136.195ZM138.195 104H121.402V108H138.195V104ZM140.598 106H138.598V108H140.598V106ZM140.598 82V80H138.598V82H140.598ZM147.793 82H149.793V80H147.793V82ZM147.793 101.207H145.793V103.207H147.793V101.207ZM154.988 101.207H156.988V99.207H154.988V101.207ZM154.988 106V108H156.988V106H154.988ZM142.598 106V82H138.598V106H142.598ZM140.598 84H147.793V80H140.598V84ZM145.793 82V101.207H149.793V82H145.793ZM147.793 103.207H154.988V99.207H147.793V103.207ZM152.988 101.207V106H156.988V101.207H152.988ZM154.988 104H140.598V108H154.988V104ZM167 101.207V103.207H169V101.207H167ZM167 86.8047H169V84.8047H167V86.8047ZM164.598 86.8047V84.8047H162.598V86.8047H164.598ZM164.598 101.207H162.598V103.207H164.598V101.207ZM157.402 106H155.402V108H157.402V106ZM157.402 82V80H155.402V82H157.402ZM174.195 82H176.195V80H174.195V82ZM174.195 106V108H176.195V106H174.195ZM169 101.207V86.8047H165V101.207H169ZM167 84.8047H164.598V88.8047H167V84.8047ZM162.598 86.8047V101.207H166.598V86.8047H162.598ZM164.598 103.207H167V99.207H164.598V103.207ZM159.402 106V82H155.402V106H159.402ZM157.402 84H174.195V80H157.402V84ZM172.195 82V106H176.195V82H172.195ZM174.195 104H157.402V108H174.195V104ZM186.195 91.6094V93.6094H188.195V91.6094H186.195ZM186.195 86.8047H188.195V84.8047H186.195V86.8047ZM183.793 86.8047V84.8047H181.793V86.8047H183.793ZM183.793 91.6094H181.793V93.6094H183.793V91.6094ZM176.598 106H174.598V108H176.598V106ZM176.598 82V80H174.598V82H176.598ZM193.391 82H195.391V80H193.391V82ZM193.391 96.4023V98.4023H195.391V96.4023H193.391ZM183.793 96.4023V94.4023H181.793V96.4023H183.793ZM183.793 106V108H185.793V106H183.793ZM188.195 91.6094V86.8047H184.195V91.6094H188.195ZM186.195 84.8047H183.793V88.8047H186.195V84.8047ZM181.793 86.8047V91.6094H185.793V86.8047H181.793ZM183.793 93.6094H186.195V89.6094H183.793V93.6094ZM178.598 106V82H174.598V106H178.598ZM176.598 84H193.391V80H176.598V84ZM191.391 82V96.4023H195.391V82H191.391ZM193.391 94.4023H183.793V98.4023H193.391V94.4023ZM181.793 96.4023V106H185.793V96.4023H181.793ZM183.793 104H176.598V108H183.793V104ZM195.793 106H193.793V108H195.793V106ZM195.793 82V80H193.793V82H195.793ZM212.586 82H214.586V80H212.586V82ZM212.586 86.8047V88.8047H214.586V86.8047H212.586ZM202.988 86.8047V84.8047H200.988V86.8047H202.988ZM202.988 91.6094H200.988V93.6094H202.988V91.6094ZM210.184 91.6094H212.184V89.6094H210.184V91.6094ZM210.184 96.4023V98.4023H212.184V96.4023H210.184ZM202.988 96.4023V94.4023H200.988V96.4023H202.988ZM202.988 101.207H200.988V103.207H202.988V101.207ZM212.586 101.207H214.586V99.207H212.586V101.207ZM212.586 106V108H214.586V106H212.586ZM197.793 106V82H193.793V106H197.793ZM195.793 84H212.586V80H195.793V84ZM210.586 82V86.8047H214.586V82H210.586ZM212.586 84.8047H202.988V88.8047H212.586V84.8047ZM200.988 86.8047V91.6094H204.988V86.8047H200.988ZM202.988 93.6094H210.184V89.6094H202.988V93.6094ZM208.184 91.6094V96.4023H212.184V91.6094H208.184ZM210.184 94.4023H202.988V98.4023H210.184V94.4023ZM200.988 96.4023V101.207H204.988V96.4023H200.988ZM202.988 103.207H212.586V99.207H202.988V103.207ZM210.586 101.207V106H214.586V101.207H210.586ZM212.586 104H195.793V108H212.586V104ZM224.586 91.6094V93.6094H226.586V91.6094H224.586ZM224.586 86.8047H226.586V84.8047H224.586V86.8047ZM222.184 86.8047V84.8047H220.184V86.8047H222.184ZM222.184 91.6094H220.184V93.6094H222.184V91.6094ZM214.988 106H212.988V108H214.988V106ZM214.988 82V80H212.988V82H214.988ZM231.781 82H233.781V80H231.781V82ZM231.781 91.6094V93.6094H233.781V91.6094H231.781ZM229.379 91.6094V89.6094H227.379V91.6094H229.379ZM229.379 94H227.379V96H229.379V94ZM231.781 94H233.781V92H231.781V94ZM231.781 106V108H233.781V106H231.781ZM224.586 106H222.586V108H224.586V106ZM224.586 96.4023H226.586V94.4023H224.586V96.4023ZM222.184 96.4023V94.4023H220.184V96.4023H222.184ZM222.184 106V108H224.184V106H222.184ZM226.586 91.6094V86.8047H222.586V91.6094H226.586ZM224.586 84.8047H222.184V88.8047H224.586V84.8047ZM220.184 86.8047V91.6094H224.184V86.8047H220.184ZM222.184 93.6094H224.586V89.6094H222.184V93.6094ZM216.988 106V82H212.988V106H216.988ZM214.988 84H231.781V80H214.988V84ZM229.781 82V91.6094H233.781V82H229.781ZM231.781 89.6094H229.379V93.6094H231.781V89.6094ZM227.379 91.6094V94H231.379V91.6094H227.379ZM229.379 96H231.781V92H229.379V96ZM229.781 94V106H233.781V94H229.781ZM231.781 104H224.586V108H231.781V104ZM226.586 106V96.4023H222.586V106H226.586ZM224.586 94.4023H222.184V98.4023H224.586V94.4023ZM220.184 96.4023V106H224.184V96.4023H220.184ZM222.184 104H214.988V108H222.184V104Z" fill="black" mask="url(#path-1-outside-1_148_48)"/>
</g>
<defs>
<filter id="filter0_d_148_48" x="0.230469" y="0" width="305.148" height="116" filterUnits="userSpaceOnUse" color-interpolation-filters="sRGB">
<feFlood flood-opacity="0" result="BackgroundImageFix"/>
<feColorMatrix in="SourceAlpha" type="matrix" values="0 0 0 0 0 0 0 0 0 0 0 0 0 0 0 0 0 0 127 0" result="hardAlpha"/>
<feOffset dx="10" dy="10"/>
<feComposite in2="hardAlpha" operator="out"/>
<feColorMatrix type="matrix" values="0 0 0 0 0.882353 0 0 0 0 0.211765 0 0 0 0 0.152941 0 0 0 1 0"/>
<feBlend mode="normal" in2="BackgroundImageFix" result="effect1_dropShadow_148_48"/>
<feBlend mode="normal" in="SourceGraphic" in2="effect1_dropShadow_148_48" result="shape"/>
</filter>
</defs>
</svg>
