<svg width="212" height="34" viewBox="0 0 212 34" fill="none" xmlns="http://www.w3.org/2000/svg">
<g filter="url(#filter0_d_148_51)">
<path d="M4.51953 20V0H18.5137V4.00391H10.5156V8.00781H16.5117V12.002H10.5156V16.0059H18.5137V20H4.51953ZM28.5137 8.00781V4.00391H26.5117V8.00781H28.5137ZM20.5156 20V0H34.5098V12.002H26.5117V20H20.5156ZM36.5117 20V10H40.5059V8.00781H36.5117V0H42.5078V6.00586H44.5098V0H50.5059V6.00586H52.5078V0H58.5039V8.00781H54.5098V10H58.5039V20H52.5078V14.0039H50.5059V20H44.5098V14.0039H42.5078V20H36.5117ZM68.5137 8.00781V4.00391H66.5117V8.00781H68.5137ZM60.5156 20V0H74.5098V20H68.5137V12.002H66.5117V20H60.5156ZM76.5117 20V0H82.5078V8.00781H84.5098V0H90.5059V20H84.5098V12.002H82.5078V20H76.5117ZM99.5 20V0H105.496V4.00391H107.498V8.00781H111.492V4.00391H113.494V0H119.5V20H113.494V12.002H111.492V16.0059H107.498V12.002H105.496V20H99.5ZM129.49 8.00781V4.00391H127.488V8.00781H129.49ZM121.492 20V0H135.486V20H129.49V12.002H127.488V20H121.492ZM149.48 16.0059V4.00391H147.488V14.0039H145.486V16.0059H149.48ZM137.488 25.9961V16.0059H139.48V14.0039H141.482V0H155.486V16.0059H157.488V25.9961H151.482V20H143.484V25.9961H137.488ZM159.48 20V0H165.477V8.00781H167.479V4.00391H169.48V0H175.477V20H169.48V12.002H167.479V16.0059H165.477V20H159.48ZM177.488 20V0H191.482V4.00391H183.484V8.00781H189.48V12.002H183.484V16.0059H191.482V20H177.488ZM201.482 16.0059V12.002H199.48V16.0059H201.482ZM201.482 8.00781V4.00391H199.48V8.00781H201.482ZM193.484 20V0H207.479V8.00781H205.477V10H207.479V20H193.484Z" fill="#EEC30B"/>
</g>
<defs>
<filter id="filter0_d_148_51" x="0.519531" y="0" width="210.959" height="33.9961" filterUnits="userSpaceOnUse" color-interpolation-filters="sRGB">
<feFlood flood-opacity="0" result="BackgroundImageFix"/>
<feColorMatrix in="SourceAlpha" type="matrix" values="0 0 0 0 0 0 0 0 0 0 0 0 0 0 0 0 0 0 127 0" result="hardAlpha"/>
<feOffset dy="4"/>
<feGaussianBlur stdDeviation="2"/>
<feComposite in2="hardAlpha" operator="out"/>
<feColorMatrix type="matrix" values="0 0 0 0 0 0 0 0 0 0 0 0 0 0 0 0 0 0 0.25 0"/>
<feBlend mode="normal" in2="BackgroundImageFix" result="effect1_dropShadow_148_51"/>
<feBlend mode="normal" in="SourceGraphic" in2="effect1_dropShadow_148_51" result="shape"/>
</filter>
</defs>
</svg>
