<svg width="292" height="42" viewBox="0 0 292 42" fill="none" xmlns="http://www.w3.org/2000/svg">
<g filter="url(#filter0_d_148_42)">
<path d="M4.20703 34V10H18.5977V14.8047H11.4023V29.207H18.5977V34H4.20703ZM21.0117 34V10H28.207V34H21.0117ZM30.6211 34V29.207H40.2188V24.4023H33.0117V19.6094H40.2188V14.8047H30.6211V10H47.4141V19.6094H45.0117V24.4023H47.4141V34H30.6211ZM58.207 34V10H65.4023V19.6094H67.8047V10H75V34H67.8047V24.4023H65.4023V34H58.207ZM77.4023 34V10H94.1953V14.8047H84.5977V19.6094H91.793V24.4023H84.5977V29.207H94.1953V34H77.4023ZM104.988 34V29.207H112.184V26.8047H107.379V22H104.988V10H112.184V19.6094H114.586V10H121.781V22H119.379V26.8047H116.988V29.207H114.586V34H104.988ZM124.184 34V10H131.379V19.6094H133.781V14.8047H136.184V10H143.379V34H136.184V24.4023H133.781V29.207H131.379V34H124.184ZM126.574 7.60938V0.402344H131.379V2.80469H136.184V0.402344H140.977V7.60938H126.574ZM155.391 19.6094V14.8047H152.988V19.6094H155.391ZM145.793 34V10H162.586V24.4023H152.988V34H145.793ZM164.988 34V10H181.781V14.8047H172.184V19.6094H179.379V24.4023H172.184V29.207H181.781V34H164.988ZM184.184 34V10H191.379V19.6094H193.781V10H200.977V34H193.781V24.4023H191.379V34H184.184ZM203.379 34V10H220.172V14.8047H210.574V19.6094H217.77V24.4023H210.574V29.207H220.172V34H203.379ZM222.574 34V10H236.965V14.8047H229.77V29.207H236.965V34H222.574ZM239.379 34V10H246.574V34H239.379ZM248.988 34V29.207H258.586V24.4023H251.379V19.6094H258.586V14.8047H248.988V10H265.781V19.6094H263.379V24.4023H265.781V34H248.988ZM275.379 34V26.8047H282.574V34H275.379ZM275.379 24.4023V19.6094H277.781V14.8047H272.977V19.6094H268.184V12.4023H270.574V10H284.977V12.4023H287.379V22H282.574V24.4023H275.379Z" fill="#EEC30B"/>
</g>
<defs>
<filter id="filter0_d_148_42" x="0.207031" y="0.402344" width="291.172" height="41.5977" filterUnits="userSpaceOnUse" color-interpolation-filters="sRGB">
<feFlood flood-opacity="0" result="BackgroundImageFix"/>
<feColorMatrix in="SourceAlpha" type="matrix" values="0 0 0 0 0 0 0 0 0 0 0 0 0 0 0 0 0 0 127 0" result="hardAlpha"/>
<feOffset dy="4"/>
<feGaussianBlur stdDeviation="2"/>
<feComposite in2="hardAlpha" operator="out"/>
<feColorMatrix type="matrix" values="0 0 0 0 0 0 0 0 0 0 0 0 0 0 0 0 0 0 0.25 0"/>
<feBlend mode="normal" in2="BackgroundImageFix" result="effect1_dropShadow_148_42"/>
<feBlend mode="normal" in="SourceGraphic" in2="effect1_dropShadow_148_42" result="shape"/>
</filter>
</defs>
</svg>
