<svg width="438" height="102" viewBox="0 0 438 102" fill="none" xmlns="http://www.w3.org/2000/svg">
<g filter="url(#filter0_d_142_2)">
<mask id="path-1-outside-1_142_2" maskUnits="userSpaceOnUse" x="3" y="-1" width="432" height="96" fill="black">
<rect fill="white" x="3" y="-1" width="432" height="96"/>
<path d="M20.1558 16.6284V11.3818H18.4126V9.63867H21.916V6.13525H18.4126V9.63867H14.9092V6.13525H11.4058V9.63867H14.9092V11.3818H13.166V16.6284H14.9092V14.8853H18.4126V16.6284H20.1558ZM4.41602 35V0H28.9058V35H18.4126V21.0034H14.9092V35H4.41602ZM32.4092 35V0H42.9023V10.5103H46.4058V0H56.8989V14.0137H49.9092V17.5H56.8989V35H46.4058V24.5068H42.9023V35H32.4092ZM60.4023 35V0H84.8921V35H74.3989V7.00684H70.8955V35H60.4023ZM102.392 14.0137V7.00684H98.8887V14.0137H102.392ZM88.3955 35V0H112.885V35H102.392V21.0034H98.8887V35H88.3955ZM130.385 14.0137V7.00684H126.882V14.0137H130.385ZM116.389 35V0H140.878V21.0034H126.882V35H116.389ZM158.378 14.0137V7.00684H154.875V14.0137H158.378ZM144.382 35V0H168.872V35H158.378V21.0034H154.875V35H144.382ZM179.365 35V7.00684H172.375V0H196.865V7.00684H189.875V35H179.365ZM212.604 35V0H223.098V10.5103H226.601V0H237.094V14.0137H230.104V17.5H237.094V35H226.601V24.5068H223.098V35H212.604ZM254.594 14.0137V7.00684H251.091V14.0137H254.594ZM240.598 35V0H265.087V35H254.594V21.0034H251.091V35H240.598ZM268.591 35V24.5068H272.077V0H296.584V35H286.091V7.00684H282.587V24.5068H279.084V35H268.591ZM321.091 28.0103V7.00684H317.604V24.5068H314.101V28.0103H321.091ZM300.104 45.4932V28.0103H303.591V24.5068H307.094V0H331.601V28.0103H335.104V45.4932H324.594V35H310.598V45.4932H300.104ZM352.587 28.0103V21.0034H349.084V28.0103H352.587ZM338.591 35V0H349.084V14.0137H363.081V35H338.591ZM366.584 35V0H377.077V35H366.584ZM394.594 14.0137V7.00684H391.091V14.0137H394.594ZM380.598 35V0H405.087V21.0034H391.091V35H380.598ZM408.591 35V28.0103H419.084V24.5068H412.077V17.5H408.591V0H419.084V14.0137H422.587V0H433.081V17.5H429.577V24.5068H426.091V28.0103H422.587V35H408.591ZM140.861 73.0137V66.0068H137.358V73.0137H140.861ZM126.865 94V59H151.354V94H140.861V80.0034H137.358V94H126.865ZM168.854 73.0137V66.0068H165.351V73.0137H168.854ZM154.858 94V59H179.348V80.0034H165.351V94H154.858ZM182.851 94V59H193.344V69.5103H196.848V59H207.341V73.0137H200.351V76.5H207.341V94H196.848V83.5068H193.344V94H182.851ZM224.841 87.0103V80.0034H221.337V87.0103H224.841ZM210.844 94V59H221.337V73.0137H235.334V94H210.844ZM238.837 94V59H249.331V94H238.837ZM252.851 94V83.5068H256.337V59H280.844V94H270.351V66.0068H266.848V83.5068H263.344V94H252.851ZM298.361 87.0103V80.0034H294.858V87.0103H298.361ZM284.365 94V59H294.858V73.0137H308.854V94H284.365ZM312.358 94V59H322.851V94H312.358Z"/>
</mask>
<path d="M20.1558 16.6284V11.3818H18.4126V9.63867H21.916V6.13525H18.4126V9.63867H14.9092V6.13525H11.4058V9.63867H14.9092V11.3818H13.166V16.6284H14.9092V14.8853H18.4126V16.6284H20.1558ZM4.41602 35V0H28.9058V35H18.4126V21.0034H14.9092V35H4.41602ZM32.4092 35V0H42.9023V10.5103H46.4058V0H56.8989V14.0137H49.9092V17.5H56.8989V35H46.4058V24.5068H42.9023V35H32.4092ZM60.4023 35V0H84.8921V35H74.3989V7.00684H70.8955V35H60.4023ZM102.392 14.0137V7.00684H98.8887V14.0137H102.392ZM88.3955 35V0H112.885V35H102.392V21.0034H98.8887V35H88.3955ZM130.385 14.0137V7.00684H126.882V14.0137H130.385ZM116.389 35V0H140.878V21.0034H126.882V35H116.389ZM158.378 14.0137V7.00684H154.875V14.0137H158.378ZM144.382 35V0H168.872V35H158.378V21.0034H154.875V35H144.382ZM179.365 35V7.00684H172.375V0H196.865V7.00684H189.875V35H179.365ZM212.604 35V0H223.098V10.5103H226.601V0H237.094V14.0137H230.104V17.5H237.094V35H226.601V24.5068H223.098V35H212.604ZM254.594 14.0137V7.00684H251.091V14.0137H254.594ZM240.598 35V0H265.087V35H254.594V21.0034H251.091V35H240.598ZM268.591 35V24.5068H272.077V0H296.584V35H286.091V7.00684H282.587V24.5068H279.084V35H268.591ZM321.091 28.0103V7.00684H317.604V24.5068H314.101V28.0103H321.091ZM300.104 45.4932V28.0103H303.591V24.5068H307.094V0H331.601V28.0103H335.104V45.4932H324.594V35H310.598V45.4932H300.104ZM352.587 28.0103V21.0034H349.084V28.0103H352.587ZM338.591 35V0H349.084V14.0137H363.081V35H338.591ZM366.584 35V0H377.077V35H366.584ZM394.594 14.0137V7.00684H391.091V14.0137H394.594ZM380.598 35V0H405.087V21.0034H391.091V35H380.598ZM408.591 35V28.0103H419.084V24.5068H412.077V17.5H408.591V0H419.084V14.0137H422.587V0H433.081V17.5H429.577V24.5068H426.091V28.0103H422.587V35H408.591ZM140.861 73.0137V66.0068H137.358V73.0137H140.861ZM126.865 94V59H151.354V94H140.861V80.0034H137.358V94H126.865ZM168.854 73.0137V66.0068H165.351V73.0137H168.854ZM154.858 94V59H179.348V80.0034H165.351V94H154.858ZM182.851 94V59H193.344V69.5103H196.848V59H207.341V73.0137H200.351V76.5H207.341V94H196.848V83.5068H193.344V94H182.851ZM224.841 87.0103V80.0034H221.337V87.0103H224.841ZM210.844 94V59H221.337V73.0137H235.334V94H210.844ZM238.837 94V59H249.331V94H238.837ZM252.851 94V83.5068H256.337V59H280.844V94H270.351V66.0068H266.848V83.5068H263.344V94H252.851ZM298.361 87.0103V80.0034H294.858V87.0103H298.361ZM284.365 94V59H294.858V73.0137H308.854V94H284.365ZM312.358 94V59H322.851V94H312.358Z" fill="#FFCF00"/>
<path d="M20.1558 16.6284V17.6284H21.1558V16.6284H20.1558ZM20.1558 11.3818H21.1558V10.3818H20.1558V11.3818ZM18.4126 11.3818H17.4126V12.3818H18.4126V11.3818ZM18.4126 9.63867V8.63867H17.4126V9.63867H18.4126ZM21.916 9.63867V10.6387H22.916V9.63867H21.916ZM21.916 6.13525H22.916V5.13525H21.916V6.13525ZM18.4126 6.13525V5.13525H17.4126V6.13525H18.4126ZM18.4126 9.63867V10.6387H19.4126V9.63867H18.4126ZM14.9092 9.63867H13.9092V10.6387H14.9092V9.63867ZM14.9092 6.13525H15.9092V5.13525H14.9092V6.13525ZM11.4058 6.13525V5.13525H10.4058V6.13525H11.4058ZM11.4058 9.63867H10.4058V10.6387H11.4058V9.63867ZM14.9092 9.63867H15.9092V8.63867H14.9092V9.63867ZM14.9092 11.3818V12.3818H15.9092V11.3818H14.9092ZM13.166 11.3818V10.3818H12.166V11.3818H13.166ZM13.166 16.6284H12.166V17.6284H13.166V16.6284ZM14.9092 16.6284V17.6284H15.9092V16.6284H14.9092ZM14.9092 14.8853V13.8853H13.9092V14.8853H14.9092ZM18.4126 14.8853H19.4126V13.8853H18.4126V14.8853ZM18.4126 16.6284H17.4126V17.6284H18.4126V16.6284ZM4.41602 35H3.41602V36H4.41602V35ZM4.41602 0V-1H3.41602V0H4.41602ZM28.9058 0H29.9058V-1H28.9058V0ZM28.9058 35V36H29.9058V35H28.9058ZM18.4126 35H17.4126V36H18.4126V35ZM18.4126 21.0034H19.4126V20.0034H18.4126V21.0034ZM14.9092 21.0034V20.0034H13.9092V21.0034H14.9092ZM14.9092 35V36H15.9092V35H14.9092ZM21.1558 16.6284V11.3818H19.1558V16.6284H21.1558ZM20.1558 10.3818H18.4126V12.3818H20.1558V10.3818ZM19.4126 11.3818V9.63867H17.4126V11.3818H19.4126ZM18.4126 10.6387H21.916V8.63867H18.4126V10.6387ZM22.916 9.63867V6.13525H20.916V9.63867H22.916ZM21.916 5.13525H18.4126V7.13525H21.916V5.13525ZM17.4126 6.13525V9.63867H19.4126V6.13525H17.4126ZM18.4126 8.63867H14.9092V10.6387H18.4126V8.63867ZM15.9092 9.63867V6.13525H13.9092V9.63867H15.9092ZM14.9092 5.13525H11.4058V7.13525H14.9092V5.13525ZM10.4058 6.13525V9.63867H12.4058V6.13525H10.4058ZM11.4058 10.6387H14.9092V8.63867H11.4058V10.6387ZM13.9092 9.63867V11.3818H15.9092V9.63867H13.9092ZM14.9092 10.3818H13.166V12.3818H14.9092V10.3818ZM12.166 11.3818V16.6284H14.166V11.3818H12.166ZM13.166 17.6284H14.9092V15.6284H13.166V17.6284ZM15.9092 16.6284V14.8853H13.9092V16.6284H15.9092ZM14.9092 15.8853H18.4126V13.8853H14.9092V15.8853ZM17.4126 14.8853V16.6284H19.4126V14.8853H17.4126ZM18.4126 17.6284H20.1558V15.6284H18.4126V17.6284ZM5.41602 35V0H3.41602V35H5.41602ZM4.41602 1H28.9058V-1H4.41602V1ZM27.9058 0V35H29.9058V0H27.9058ZM28.9058 34H18.4126V36H28.9058V34ZM19.4126 35V21.0034H17.4126V35H19.4126ZM18.4126 20.0034H14.9092V22.0034H18.4126V20.0034ZM13.9092 21.0034V35H15.9092V21.0034H13.9092ZM14.9092 34H4.41602V36H14.9092V34ZM32.4092 35H31.4092V36H32.4092V35ZM32.4092 0V-1H31.4092V0H32.4092ZM42.9023 0H43.9023V-1H42.9023V0ZM42.9023 10.5103H41.9023V11.5103H42.9023V10.5103ZM46.4058 10.5103V11.5103H47.4058V10.5103H46.4058ZM46.4058 0V-1H45.4058V0H46.4058ZM56.8989 0H57.8989V-1H56.8989V0ZM56.8989 14.0137V15.0137H57.8989V14.0137H56.8989ZM49.9092 14.0137V13.0137H48.9092V14.0137H49.9092ZM49.9092 17.5H48.9092V18.5H49.9092V17.5ZM56.8989 17.5H57.8989V16.5H56.8989V17.5ZM56.8989 35V36H57.8989V35H56.8989ZM46.4058 35H45.4058V36H46.4058V35ZM46.4058 24.5068H47.4058V23.5068H46.4058V24.5068ZM42.9023 24.5068V23.5068H41.9023V24.5068H42.9023ZM42.9023 35V36H43.9023V35H42.9023ZM33.4092 35V0H31.4092V35H33.4092ZM32.4092 1H42.9023V-1H32.4092V1ZM41.9023 0V10.5103H43.9023V0H41.9023ZM42.9023 11.5103H46.4058V9.51025H42.9023V11.5103ZM47.4058 10.5103V0H45.4058V10.5103H47.4058ZM46.4058 1H56.8989V-1H46.4058V1ZM55.8989 0V14.0137H57.8989V0H55.8989ZM56.8989 13.0137H49.9092V15.0137H56.8989V13.0137ZM48.9092 14.0137V17.5H50.9092V14.0137H48.9092ZM49.9092 18.5H56.8989V16.5H49.9092V18.5ZM55.8989 17.5V35H57.8989V17.5H55.8989ZM56.8989 34H46.4058V36H56.8989V34ZM47.4058 35V24.5068H45.4058V35H47.4058ZM46.4058 23.5068H42.9023V25.5068H46.4058V23.5068ZM41.9023 24.5068V35H43.9023V24.5068H41.9023ZM42.9023 34H32.4092V36H42.9023V34ZM60.4023 35H59.4023V36H60.4023V35ZM60.4023 0V-1H59.4023V0H60.4023ZM84.8921 0H85.8921V-1H84.8921V0ZM84.8921 35V36H85.8921V35H84.8921ZM74.3989 35H73.3989V36H74.3989V35ZM74.3989 7.00684H75.3989V6.00684H74.3989V7.00684ZM70.8955 7.00684V6.00684H69.8955V7.00684H70.8955ZM70.8955 35V36H71.8955V35H70.8955ZM61.4023 35V0H59.4023V35H61.4023ZM60.4023 1H84.8921V-1H60.4023V1ZM83.8921 0V35H85.8921V0H83.8921ZM84.8921 34H74.3989V36H84.8921V34ZM75.3989 35V7.00684H73.3989V35H75.3989ZM74.3989 6.00684H70.8955V8.00684H74.3989V6.00684ZM69.8955 7.00684V35H71.8955V7.00684H69.8955ZM70.8955 34H60.4023V36H70.8955V34ZM102.392 14.0137V15.0137H103.392V14.0137H102.392ZM102.392 7.00684H103.392V6.00684H102.392V7.00684ZM98.8887 7.00684V6.00684H97.8887V7.00684H98.8887ZM98.8887 14.0137H97.8887V15.0137H98.8887V14.0137ZM88.3955 35H87.3955V36H88.3955V35ZM88.3955 0V-1H87.3955V0H88.3955ZM112.885 0H113.885V-1H112.885V0ZM112.885 35V36H113.885V35H112.885ZM102.392 35H101.392V36H102.392V35ZM102.392 21.0034H103.392V20.0034H102.392V21.0034ZM98.8887 21.0034V20.0034H97.8887V21.0034H98.8887ZM98.8887 35V36H99.8887V35H98.8887ZM103.392 14.0137V7.00684H101.392V14.0137H103.392ZM102.392 6.00684H98.8887V8.00684H102.392V6.00684ZM97.8887 7.00684V14.0137H99.8887V7.00684H97.8887ZM98.8887 15.0137H102.392V13.0137H98.8887V15.0137ZM89.3955 35V0H87.3955V35H89.3955ZM88.3955 1H112.885V-1H88.3955V1ZM111.885 0V35H113.885V0H111.885ZM112.885 34H102.392V36H112.885V34ZM103.392 35V21.0034H101.392V35H103.392ZM102.392 20.0034H98.8887V22.0034H102.392V20.0034ZM97.8887 21.0034V35H99.8887V21.0034H97.8887ZM98.8887 34H88.3955V36H98.8887V34ZM130.385 14.0137V15.0137H131.385V14.0137H130.385ZM130.385 7.00684H131.385V6.00684H130.385V7.00684ZM126.882 7.00684V6.00684H125.882V7.00684H126.882ZM126.882 14.0137H125.882V15.0137H126.882V14.0137ZM116.389 35H115.389V36H116.389V35ZM116.389 0V-1H115.389V0H116.389ZM140.878 0H141.878V-1H140.878V0ZM140.878 21.0034V22.0034H141.878V21.0034H140.878ZM126.882 21.0034V20.0034H125.882V21.0034H126.882ZM126.882 35V36H127.882V35H126.882ZM131.385 14.0137V7.00684H129.385V14.0137H131.385ZM130.385 6.00684H126.882V8.00684H130.385V6.00684ZM125.882 7.00684V14.0137H127.882V7.00684H125.882ZM126.882 15.0137H130.385V13.0137H126.882V15.0137ZM117.389 35V0H115.389V35H117.389ZM116.389 1H140.878V-1H116.389V1ZM139.878 0V21.0034H141.878V0H139.878ZM140.878 20.0034H126.882V22.0034H140.878V20.0034ZM125.882 21.0034V35H127.882V21.0034H125.882ZM126.882 34H116.389V36H126.882V34ZM158.378 14.0137V15.0137H159.378V14.0137H158.378ZM158.378 7.00684H159.378V6.00684H158.378V7.00684ZM154.875 7.00684V6.00684H153.875V7.00684H154.875ZM154.875 14.0137H153.875V15.0137H154.875V14.0137ZM144.382 35H143.382V36H144.382V35ZM144.382 0V-1H143.382V0H144.382ZM168.872 0H169.872V-1H168.872V0ZM168.872 35V36H169.872V35H168.872ZM158.378 35H157.378V36H158.378V35ZM158.378 21.0034H159.378V20.0034H158.378V21.0034ZM154.875 21.0034V20.0034H153.875V21.0034H154.875ZM154.875 35V36H155.875V35H154.875ZM159.378 14.0137V7.00684H157.378V14.0137H159.378ZM158.378 6.00684H154.875V8.00684H158.378V6.00684ZM153.875 7.00684V14.0137H155.875V7.00684H153.875ZM154.875 15.0137H158.378V13.0137H154.875V15.0137ZM145.382 35V0H143.382V35H145.382ZM144.382 1H168.872V-1H144.382V1ZM167.872 0V35H169.872V0H167.872ZM168.872 34H158.378V36H168.872V34ZM159.378 35V21.0034H157.378V35H159.378ZM158.378 20.0034H154.875V22.0034H158.378V20.0034ZM153.875 21.0034V35H155.875V21.0034H153.875ZM154.875 34H144.382V36H154.875V34ZM179.365 35H178.365V36H179.365V35ZM179.365 7.00684H180.365V6.00684H179.365V7.00684ZM172.375 7.00684H171.375V8.00684H172.375V7.00684ZM172.375 0V-1H171.375V0H172.375ZM196.865 0H197.865V-1H196.865V0ZM196.865 7.00684V8.00684H197.865V7.00684H196.865ZM189.875 7.00684V6.00684H188.875V7.00684H189.875ZM189.875 35V36H190.875V35H189.875ZM180.365 35V7.00684H178.365V35H180.365ZM179.365 6.00684H172.375V8.00684H179.365V6.00684ZM173.375 7.00684V0H171.375V7.00684H173.375ZM172.375 1H196.865V-1H172.375V1ZM195.865 0V7.00684H197.865V0H195.865ZM196.865 6.00684H189.875V8.00684H196.865V6.00684ZM188.875 7.00684V35H190.875V7.00684H188.875ZM189.875 34H179.365V36H189.875V34ZM212.604 35H211.604V36H212.604V35ZM212.604 0V-1H211.604V0H212.604ZM223.098 0H224.098V-1H223.098V0ZM223.098 10.5103H222.098V11.5103H223.098V10.5103ZM226.601 10.5103V11.5103H227.601V10.5103H226.601ZM226.601 0V-1H225.601V0H226.601ZM237.094 0H238.094V-1H237.094V0ZM237.094 14.0137V15.0137H238.094V14.0137H237.094ZM230.104 14.0137V13.0137H229.104V14.0137H230.104ZM230.104 17.5H229.104V18.5H230.104V17.5ZM237.094 17.5H238.094V16.5H237.094V17.5ZM237.094 35V36H238.094V35H237.094ZM226.601 35H225.601V36H226.601V35ZM226.601 24.5068H227.601V23.5068H226.601V24.5068ZM223.098 24.5068V23.5068H222.098V24.5068H223.098ZM223.098 35V36H224.098V35H223.098ZM213.604 35V0H211.604V35H213.604ZM212.604 1H223.098V-1H212.604V1ZM222.098 0V10.5103H224.098V0H222.098ZM223.098 11.5103H226.601V9.51025H223.098V11.5103ZM227.601 10.5103V0H225.601V10.5103H227.601ZM226.601 1H237.094V-1H226.601V1ZM236.094 0V14.0137H238.094V0H236.094ZM237.094 13.0137H230.104V15.0137H237.094V13.0137ZM229.104 14.0137V17.5H231.104V14.0137H229.104ZM230.104 18.5H237.094V16.5H230.104V18.5ZM236.094 17.5V35H238.094V17.5H236.094ZM237.094 34H226.601V36H237.094V34ZM227.601 35V24.5068H225.601V35H227.601ZM226.601 23.5068H223.098V25.5068H226.601V23.5068ZM222.098 24.5068V35H224.098V24.5068H222.098ZM223.098 34H212.604V36H223.098V34ZM254.594 14.0137V15.0137H255.594V14.0137H254.594ZM254.594 7.00684H255.594V6.00684H254.594V7.00684ZM251.091 7.00684V6.00684H250.091V7.00684H251.091ZM251.091 14.0137H250.091V15.0137H251.091V14.0137ZM240.598 35H239.598V36H240.598V35ZM240.598 0V-1H239.598V0H240.598ZM265.087 0H266.087V-1H265.087V0ZM265.087 35V36H266.087V35H265.087ZM254.594 35H253.594V36H254.594V35ZM254.594 21.0034H255.594V20.0034H254.594V21.0034ZM251.091 21.0034V20.0034H250.091V21.0034H251.091ZM251.091 35V36H252.091V35H251.091ZM255.594 14.0137V7.00684H253.594V14.0137H255.594ZM254.594 6.00684H251.091V8.00684H254.594V6.00684ZM250.091 7.00684V14.0137H252.091V7.00684H250.091ZM251.091 15.0137H254.594V13.0137H251.091V15.0137ZM241.598 35V0H239.598V35H241.598ZM240.598 1H265.087V-1H240.598V1ZM264.087 0V35H266.087V0H264.087ZM265.087 34H254.594V36H265.087V34ZM255.594 35V21.0034H253.594V35H255.594ZM254.594 20.0034H251.091V22.0034H254.594V20.0034ZM250.091 21.0034V35H252.091V21.0034H250.091ZM251.091 34H240.598V36H251.091V34ZM268.591 35H267.591V36H268.591V35ZM268.591 24.5068V23.5068H267.591V24.5068H268.591ZM272.077 24.5068V25.5068H273.077V24.5068H272.077ZM272.077 0V-1H271.077V0H272.077ZM296.584 0H297.584V-1H296.584V0ZM296.584 35V36H297.584V35H296.584ZM286.091 35H285.091V36H286.091V35ZM286.091 7.00684H287.091V6.00684H286.091V7.00684ZM282.587 7.00684V6.00684H281.587V7.00684H282.587ZM282.587 24.5068V25.5068H283.587V24.5068H282.587ZM279.084 24.5068V23.5068H278.084V24.5068H279.084ZM279.084 35V36H280.084V35H279.084ZM269.591 35V24.5068H267.591V35H269.591ZM268.591 25.5068H272.077V23.5068H268.591V25.5068ZM273.077 24.5068V0H271.077V24.5068H273.077ZM272.077 1H296.584V-1H272.077V1ZM295.584 0V35H297.584V0H295.584ZM296.584 34H286.091V36H296.584V34ZM287.091 35V7.00684H285.091V35H287.091ZM286.091 6.00684H282.587V8.00684H286.091V6.00684ZM281.587 7.00684V24.5068H283.587V7.00684H281.587ZM282.587 23.5068H279.084V25.5068H282.587V23.5068ZM278.084 24.5068V35H280.084V24.5068H278.084ZM279.084 34H268.591V36H279.084V34ZM321.091 28.0103V29.0103H322.091V28.0103H321.091ZM321.091 7.00684H322.091V6.00684H321.091V7.00684ZM317.604 7.00684V6.00684H316.604V7.00684H317.604ZM317.604 24.5068V25.5068H318.604V24.5068H317.604ZM314.101 24.5068V23.5068H313.101V24.5068H314.101ZM314.101 28.0103H313.101V29.0103H314.101V28.0103ZM300.104 45.4932H299.104V46.4932H300.104V45.4932ZM300.104 28.0103V27.0103H299.104V28.0103H300.104ZM303.591 28.0103V29.0103H304.591V28.0103H303.591ZM303.591 24.5068V23.5068H302.591V24.5068H303.591ZM307.094 24.5068V25.5068H308.094V24.5068H307.094ZM307.094 0V-1H306.094V0H307.094ZM331.601 0H332.601V-1H331.601V0ZM331.601 28.0103H330.601V29.0103H331.601V28.0103ZM335.104 28.0103H336.104V27.0103H335.104V28.0103ZM335.104 45.4932V46.4932H336.104V45.4932H335.104ZM324.594 45.4932H323.594V46.4932H324.594V45.4932ZM324.594 35H325.594V34H324.594V35ZM310.598 35V34H309.598V35H310.598ZM310.598 45.4932V46.4932H311.598V45.4932H310.598ZM322.091 28.0103V7.00684H320.091V28.0103H322.091ZM321.091 6.00684H317.604V8.00684H321.091V6.00684ZM316.604 7.00684V24.5068H318.604V7.00684H316.604ZM317.604 23.5068H314.101V25.5068H317.604V23.5068ZM313.101 24.5068V28.0103H315.101V24.5068H313.101ZM314.101 29.0103H321.091V27.0103H314.101V29.0103ZM301.104 45.4932V28.0103H299.104V45.4932H301.104ZM300.104 29.0103H303.591V27.0103H300.104V29.0103ZM304.591 28.0103V24.5068H302.591V28.0103H304.591ZM303.591 25.5068H307.094V23.5068H303.591V25.5068ZM308.094 24.5068V0H306.094V24.5068H308.094ZM307.094 1H331.601V-1H307.094V1ZM330.601 0V28.0103H332.601V0H330.601ZM331.601 29.0103H335.104V27.0103H331.601V29.0103ZM334.104 28.0103V45.4932H336.104V28.0103H334.104ZM335.104 44.4932H324.594V46.4932H335.104V44.4932ZM325.594 45.4932V35H323.594V45.4932H325.594ZM324.594 34H310.598V36H324.594V34ZM309.598 35V45.4932H311.598V35H309.598ZM310.598 44.4932H300.104V46.4932H310.598V44.4932ZM352.587 28.0103V29.0103H353.587V28.0103H352.587ZM352.587 21.0034H353.587V20.0034H352.587V21.0034ZM349.084 21.0034V20.0034H348.084V21.0034H349.084ZM349.084 28.0103H348.084V29.0103H349.084V28.0103ZM338.591 35H337.591V36H338.591V35ZM338.591 0V-1H337.591V0H338.591ZM349.084 0H350.084V-1H349.084V0ZM349.084 14.0137H348.084V15.0137H349.084V14.0137ZM363.081 14.0137H364.081V13.0137H363.081V14.0137ZM363.081 35V36H364.081V35H363.081ZM366.584 35H365.584V36H366.584V35ZM366.584 0V-1H365.584V0H366.584ZM377.077 0H378.077V-1H377.077V0ZM377.077 35V36H378.077V35H377.077ZM353.587 28.0103V21.0034H351.587V28.0103H353.587ZM352.587 20.0034H349.084V22.0034H352.587V20.0034ZM348.084 21.0034V28.0103H350.084V21.0034H348.084ZM349.084 29.0103H352.587V27.0103H349.084V29.0103ZM339.591 35V0H337.591V35H339.591ZM338.591 1H349.084V-1H338.591V1ZM348.084 0V14.0137H350.084V0H348.084ZM349.084 15.0137H363.081V13.0137H349.084V15.0137ZM362.081 14.0137V35H364.081V14.0137H362.081ZM363.081 34H338.591V36H363.081V34ZM367.584 35V0H365.584V35H367.584ZM366.584 1H377.077V-1H366.584V1ZM376.077 0V35H378.077V0H376.077ZM377.077 34H366.584V36H377.077V34ZM394.594 14.0137V15.0137H395.594V14.0137H394.594ZM394.594 7.00684H395.594V6.00684H394.594V7.00684ZM391.091 7.00684V6.00684H390.091V7.00684H391.091ZM391.091 14.0137H390.091V15.0137H391.091V14.0137ZM380.598 35H379.598V36H380.598V35ZM380.598 0V-1H379.598V0H380.598ZM405.087 0H406.087V-1H405.087V0ZM405.087 21.0034V22.0034H406.087V21.0034H405.087ZM391.091 21.0034V20.0034H390.091V21.0034H391.091ZM391.091 35V36H392.091V35H391.091ZM395.594 14.0137V7.00684H393.594V14.0137H395.594ZM394.594 6.00684H391.091V8.00684H394.594V6.00684ZM390.091 7.00684V14.0137H392.091V7.00684H390.091ZM391.091 15.0137H394.594V13.0137H391.091V15.0137ZM381.598 35V0H379.598V35H381.598ZM380.598 1H405.087V-1H380.598V1ZM404.087 0V21.0034H406.087V0H404.087ZM405.087 20.0034H391.091V22.0034H405.087V20.0034ZM390.091 21.0034V35H392.091V21.0034H390.091ZM391.091 34H380.598V36H391.091V34ZM408.591 35H407.591V36H408.591V35ZM408.591 28.0103V27.0103H407.591V28.0103H408.591ZM419.084 28.0103V29.0103H420.084V28.0103H419.084ZM419.084 24.5068H420.084V23.5068H419.084V24.5068ZM412.077 24.5068H411.077V25.5068H412.077V24.5068ZM412.077 17.5H413.077V16.5H412.077V17.5ZM408.591 17.5H407.591V18.5H408.591V17.5ZM408.591 0V-1H407.591V0H408.591ZM419.084 0H420.084V-1H419.084V0ZM419.084 14.0137H418.084V15.0137H419.084V14.0137ZM422.587 14.0137V15.0137H423.587V14.0137H422.587ZM422.587 0V-1H421.587V0H422.587ZM433.081 0H434.081V-1H433.081V0ZM433.081 17.5V18.5H434.081V17.5H433.081ZM429.577 17.5V16.5H428.577V17.5H429.577ZM429.577 24.5068V25.5068H430.577V24.5068H429.577ZM426.091 24.5068V23.5068H425.091V24.5068H426.091ZM426.091 28.0103V29.0103H427.091V28.0103H426.091ZM422.587 28.0103V27.0103H421.587V28.0103H422.587ZM422.587 35V36H423.587V35H422.587ZM409.591 35V28.0103H407.591V35H409.591ZM408.591 29.0103H419.084V27.0103H408.591V29.0103ZM420.084 28.0103V24.5068H418.084V28.0103H420.084ZM419.084 23.5068H412.077V25.5068H419.084V23.5068ZM413.077 24.5068V17.5H411.077V24.5068H413.077ZM412.077 16.5H408.591V18.5H412.077V16.5ZM409.591 17.5V0H407.591V17.5H409.591ZM408.591 1H419.084V-1H408.591V1ZM418.084 0V14.0137H420.084V0H418.084ZM419.084 15.0137H422.587V13.0137H419.084V15.0137ZM423.587 14.0137V0H421.587V14.0137H423.587ZM422.587 1H433.081V-1H422.587V1ZM432.081 0V17.5H434.081V0H432.081ZM433.081 16.5H429.577V18.5H433.081V16.5ZM428.577 17.5V24.5068H430.577V17.5H428.577ZM429.577 23.5068H426.091V25.5068H429.577V23.5068ZM425.091 24.5068V28.0103H427.091V24.5068H425.091ZM426.091 27.0103H422.587V29.0103H426.091V27.0103ZM421.587 28.0103V35H423.587V28.0103H421.587ZM422.587 34H408.591V36H422.587V34ZM140.861 73.0137V74.0137H141.861V73.0137H140.861ZM140.861 66.0068H141.861V65.0068H140.861V66.0068ZM137.358 66.0068V65.0068H136.358V66.0068H137.358ZM137.358 73.0137H136.358V74.0137H137.358V73.0137ZM126.865 94H125.865V95H126.865V94ZM126.865 59V58H125.865V59H126.865ZM151.354 59H152.354V58H151.354V59ZM151.354 94V95H152.354V94H151.354ZM140.861 94H139.861V95H140.861V94ZM140.861 80.0034H141.861V79.0034H140.861V80.0034ZM137.358 80.0034V79.0034H136.358V80.0034H137.358ZM137.358 94V95H138.358V94H137.358ZM141.861 73.0137V66.0068H139.861V73.0137H141.861ZM140.861 65.0068H137.358V67.0068H140.861V65.0068ZM136.358 66.0068V73.0137H138.358V66.0068H136.358ZM137.358 74.0137H140.861V72.0137H137.358V74.0137ZM127.865 94V59H125.865V94H127.865ZM126.865 60H151.354V58H126.865V60ZM150.354 59V94H152.354V59H150.354ZM151.354 93H140.861V95H151.354V93ZM141.861 94V80.0034H139.861V94H141.861ZM140.861 79.0034H137.358V81.0034H140.861V79.0034ZM136.358 80.0034V94H138.358V80.0034H136.358ZM137.358 93H126.865V95H137.358V93ZM168.854 73.0137V74.0137H169.854V73.0137H168.854ZM168.854 66.0068H169.854V65.0068H168.854V66.0068ZM165.351 66.0068V65.0068H164.351V66.0068H165.351ZM165.351 73.0137H164.351V74.0137H165.351V73.0137ZM154.858 94H153.858V95H154.858V94ZM154.858 59V58H153.858V59H154.858ZM179.348 59H180.348V58H179.348V59ZM179.348 80.0034V81.0034H180.348V80.0034H179.348ZM165.351 80.0034V79.0034H164.351V80.0034H165.351ZM165.351 94V95H166.351V94H165.351ZM169.854 73.0137V66.0068H167.854V73.0137H169.854ZM168.854 65.0068H165.351V67.0068H168.854V65.0068ZM164.351 66.0068V73.0137H166.351V66.0068H164.351ZM165.351 74.0137H168.854V72.0137H165.351V74.0137ZM155.858 94V59H153.858V94H155.858ZM154.858 60H179.348V58H154.858V60ZM178.348 59V80.0034H180.348V59H178.348ZM179.348 79.0034H165.351V81.0034H179.348V79.0034ZM164.351 80.0034V94H166.351V80.0034H164.351ZM165.351 93H154.858V95H165.351V93ZM182.851 94H181.851V95H182.851V94ZM182.851 59V58H181.851V59H182.851ZM193.344 59H194.344V58H193.344V59ZM193.344 69.5103H192.344V70.5103H193.344V69.5103ZM196.848 69.5103V70.5103H197.848V69.5103H196.848ZM196.848 59V58H195.848V59H196.848ZM207.341 59H208.341V58H207.341V59ZM207.341 73.0137V74.0137H208.341V73.0137H207.341ZM200.351 73.0137V72.0137H199.351V73.0137H200.351ZM200.351 76.5H199.351V77.5H200.351V76.5ZM207.341 76.5H208.341V75.5H207.341V76.5ZM207.341 94V95H208.341V94H207.341ZM196.848 94H195.848V95H196.848V94ZM196.848 83.5068H197.848V82.5068H196.848V83.5068ZM193.344 83.5068V82.5068H192.344V83.5068H193.344ZM193.344 94V95H194.344V94H193.344ZM183.851 94V59H181.851V94H183.851ZM182.851 60H193.344V58H182.851V60ZM192.344 59V69.5103H194.344V59H192.344ZM193.344 70.5103H196.848V68.5103H193.344V70.5103ZM197.848 69.5103V59H195.848V69.5103H197.848ZM196.848 60H207.341V58H196.848V60ZM206.341 59V73.0137H208.341V59H206.341ZM207.341 72.0137H200.351V74.0137H207.341V72.0137ZM199.351 73.0137V76.5H201.351V73.0137H199.351ZM200.351 77.5H207.341V75.5H200.351V77.5ZM206.341 76.5V94H208.341V76.5H206.341ZM207.341 93H196.848V95H207.341V93ZM197.848 94V83.5068H195.848V94H197.848ZM196.848 82.5068H193.344V84.5068H196.848V82.5068ZM192.344 83.5068V94H194.344V83.5068H192.344ZM193.344 93H182.851V95H193.344V93ZM224.841 87.0103V88.0103H225.841V87.0103H224.841ZM224.841 80.0034H225.841V79.0034H224.841V80.0034ZM221.337 80.0034V79.0034H220.337V80.0034H221.337ZM221.337 87.0103H220.337V88.0103H221.337V87.0103ZM210.844 94H209.844V95H210.844V94ZM210.844 59V58H209.844V59H210.844ZM221.337 59H222.337V58H221.337V59ZM221.337 73.0137H220.337V74.0137H221.337V73.0137ZM235.334 73.0137H236.334V72.0137H235.334V73.0137ZM235.334 94V95H236.334V94H235.334ZM238.837 94H237.837V95H238.837V94ZM238.837 59V58H237.837V59H238.837ZM249.331 59H250.331V58H249.331V59ZM249.331 94V95H250.331V94H249.331ZM225.841 87.0103V80.0034H223.841V87.0103H225.841ZM224.841 79.0034H221.337V81.0034H224.841V79.0034ZM220.337 80.0034V87.0103H222.337V80.0034H220.337ZM221.337 88.0103H224.841V86.0103H221.337V88.0103ZM211.844 94V59H209.844V94H211.844ZM210.844 60H221.337V58H210.844V60ZM220.337 59V73.0137H222.337V59H220.337ZM221.337 74.0137H235.334V72.0137H221.337V74.0137ZM234.334 73.0137V94H236.334V73.0137H234.334ZM235.334 93H210.844V95H235.334V93ZM239.837 94V59H237.837V94H239.837ZM238.837 60H249.331V58H238.837V60ZM248.331 59V94H250.331V59H248.331ZM249.331 93H238.837V95H249.331V93ZM252.851 94H251.851V95H252.851V94ZM252.851 83.5068V82.5068H251.851V83.5068H252.851ZM256.337 83.5068V84.5068H257.337V83.5068H256.337ZM256.337 59V58H255.337V59H256.337ZM280.844 59H281.844V58H280.844V59ZM280.844 94V95H281.844V94H280.844ZM270.351 94H269.351V95H270.351V94ZM270.351 66.0068H271.351V65.0068H270.351V66.0068ZM266.848 66.0068V65.0068H265.848V66.0068H266.848ZM266.848 83.5068V84.5068H267.848V83.5068H266.848ZM263.344 83.5068V82.5068H262.344V83.5068H263.344ZM263.344 94V95H264.344V94H263.344ZM253.851 94V83.5068H251.851V94H253.851ZM252.851 84.5068H256.337V82.5068H252.851V84.5068ZM257.337 83.5068V59H255.337V83.5068H257.337ZM256.337 60H280.844V58H256.337V60ZM279.844 59V94H281.844V59H279.844ZM280.844 93H270.351V95H280.844V93ZM271.351 94V66.0068H269.351V94H271.351ZM270.351 65.0068H266.848V67.0068H270.351V65.0068ZM265.848 66.0068V83.5068H267.848V66.0068H265.848ZM266.848 82.5068H263.344V84.5068H266.848V82.5068ZM262.344 83.5068V94H264.344V83.5068H262.344ZM263.344 93H252.851V95H263.344V93ZM298.361 87.0103V88.0103H299.361V87.0103H298.361ZM298.361 80.0034H299.361V79.0034H298.361V80.0034ZM294.858 80.0034V79.0034H293.858V80.0034H294.858ZM294.858 87.0103H293.858V88.0103H294.858V87.0103ZM284.365 94H283.365V95H284.365V94ZM284.365 59V58H283.365V59H284.365ZM294.858 59H295.858V58H294.858V59ZM294.858 73.0137H293.858V74.0137H294.858V73.0137ZM308.854 73.0137H309.854V72.0137H308.854V73.0137ZM308.854 94V95H309.854V94H308.854ZM312.358 94H311.358V95H312.358V94ZM312.358 59V58H311.358V59H312.358ZM322.851 59H323.851V58H322.851V59ZM322.851 94V95H323.851V94H322.851ZM299.361 87.0103V80.0034H297.361V87.0103H299.361ZM298.361 79.0034H294.858V81.0034H298.361V79.0034ZM293.858 80.0034V87.0103H295.858V80.0034H293.858ZM294.858 88.0103H298.361V86.0103H294.858V88.0103ZM285.365 94V59H283.365V94H285.365ZM284.365 60H294.858V58H284.365V60ZM293.858 59V73.0137H295.858V59H293.858ZM294.858 74.0137H308.854V72.0137H294.858V74.0137ZM307.854 73.0137V94H309.854V73.0137H307.854ZM308.854 93H284.365V95H308.854V93ZM313.358 94V59H311.358V94H313.358ZM312.358 60H322.851V58H312.358V60ZM321.851 59V94H323.851V59H321.851ZM322.851 93H312.358V95H322.851V93Z" fill="black" mask="url(#path-1-outside-1_142_2)"/>
</g>
<defs>
<filter id="filter0_d_142_2" x="0.414062" y="0" width="436.668" height="102" filterUnits="userSpaceOnUse" color-interpolation-filters="sRGB">
<feFlood flood-opacity="0" result="BackgroundImageFix"/>
<feColorMatrix in="SourceAlpha" type="matrix" values="0 0 0 0 0 0 0 0 0 0 0 0 0 0 0 0 0 0 127 0" result="hardAlpha"/>
<feOffset dy="4"/>
<feGaussianBlur stdDeviation="2"/>
<feComposite in2="hardAlpha" operator="out"/>
<feColorMatrix type="matrix" values="0 0 0 0 0 0 0 0 0 0 0 0 0 0 0 0 0 0 0.25 0"/>
<feBlend mode="normal" in2="BackgroundImageFix" result="effect1_dropShadow_142_2"/>
<feBlend mode="normal" in="SourceGraphic" in2="effect1_dropShadow_142_2" result="shape"/>
</filter>
</defs>
</svg>
