<svg width="391" height="113" viewBox="0 0 391 113" fill="none" xmlns="http://www.w3.org/2000/svg">
<g clip-path="url(#clip0_65_27653)">
<path fill-rule="evenodd" clip-rule="evenodd" d="M118.209 16.5732H29.0969V24.1066H20.0039V96.4266H107.297V88.8932H118.209V16.5732Z" fill="#F2BF33"/>
<path fill-rule="evenodd" clip-rule="evenodd" d="M245.511 16.5732H156.4V24.1066H147.307V96.4266H234.6V88.8932H245.511V16.5732Z" fill="#F2BF33"/>
<path fill-rule="evenodd" clip-rule="evenodd" d="M372.814 16.5732H283.702V24.1066H274.609V96.4266H361.902V88.8932H372.814V16.5732Z" fill="#F2BF33"/>
<path fill-rule="evenodd" clip-rule="evenodd" d="M118.209 7.53345H127.302V105.467H118.209H107.297H20.0039V96.4268H107.297V88.8935H118.209V7.53345Z" fill="#C47A41"/>
<path fill-rule="evenodd" clip-rule="evenodd" d="M245.511 7.53345H254.604V105.467H245.511H234.6H147.307V96.4268H234.6V88.8935H245.511V7.53345Z" fill="#C47A41"/>
<path fill-rule="evenodd" clip-rule="evenodd" d="M372.814 7.53345H381.907V105.467H372.814H361.902H274.609V96.4268H361.902V88.8935H372.814V7.53345Z" fill="#C47A41"/>
<path fill-rule="evenodd" clip-rule="evenodd" d="M14.5496 6.02661H30.917V7.53328H118.21V16.5733H30.917V25.6133H21.824V105.467H9.09375V7.53328H14.5496V6.02661Z" fill="#F2D072"/>
<path fill-rule="evenodd" clip-rule="evenodd" d="M141.85 6.02661H158.218V7.53328H245.511V16.5733H158.218V25.6133H149.125V105.467H136.395V7.53328H141.85V6.02661Z" fill="#F2D072"/>
<path fill-rule="evenodd" clip-rule="evenodd" d="M269.153 6.02661H285.521V7.53328H372.814V16.5733H285.521V25.6133H276.427V105.467H263.697V7.53328H269.153V6.02661Z" fill="#F2D072"/>
<path d="M127.303 0H9.09375V7.53333H127.303V0Z" fill="#202126"/>
<path d="M254.604 0H136.395V7.53333H254.604V0Z" fill="#202126"/>
<path d="M381.907 0H263.697V7.53333H381.907V0Z" fill="#202126"/>
<path d="M127.303 105.467H9.09375V113H127.303V105.467Z" fill="#202126"/>
<path d="M254.604 105.467H136.395V113H254.604V105.467Z" fill="#202126"/>
<path d="M381.907 105.467H263.697V113H381.907V105.467Z" fill="#202126"/>
<path d="M9.09302 7.53345H0V105.467H9.09302V7.53345Z" fill="#202126"/>
<path d="M136.396 7.53345H127.303V105.467H136.396V7.53345Z" fill="#202126"/>
<path d="M263.698 7.53345H254.605V105.467H263.698V7.53345Z" fill="#202126"/>
<path d="M136.396 7.53345H127.303V105.467H136.396V7.53345Z" fill="#202126"/>
<path d="M263.698 7.53345H254.605V105.467H263.698V7.53345Z" fill="#202126"/>
<path d="M390.999 7.53345H381.906V105.467H390.999V7.53345Z" fill="#202126"/>
</g>
<defs>
<clipPath id="clip0_65_27653">
<rect width="391" height="113" fill="white"/>
</clipPath>
</defs>
</svg>
