<svg width="714" height="140" viewBox="0 0 714 140" fill="none" xmlns="http://www.w3.org/2000/svg">
<g clip-path="url(#clip0_49_14538)">
<path fill-rule="evenodd" clip-rule="evenodd" d="M693.509 6.26868H20.4906V15.3035V17.109H6.28125V26.1445V112.866V121.901H20.4906V124.698V133.732H693.509V124.698V121.901H707.718V112.866V26.1445V17.109H693.509V15.3035V6.26868Z" fill="#3F67FF"/>
<mask id="mask0_49_14538" style="mask-type:luminance" maskUnits="userSpaceOnUse" x="0" y="0" width="714" height="143">
<path d="M714 0H0V142.09H714V0Z" fill="white"/>
<path fill-rule="evenodd" clip-rule="evenodd" d="M693.509 6.26868H20.4906V15.3035V17.109H6.28125V26.1445V112.866V121.901H20.4906V124.698V133.732H693.509V124.698V121.901H707.718V112.866V26.1445V17.109H693.509V15.3035V6.26868Z" fill="black"/>
</mask>
<g mask="url(#mask0_49_14538)">
<path d="M20.4909 6.26866V0H14.2094V6.26866H20.4909ZM693.51 6.26866H699.791V0H693.51V6.26866ZM20.4909 17.109V23.3777H26.7725V17.109H20.4909ZM6.28152 17.109V10.8403H0V17.109H6.28152ZM6.28152 121.901H0V128.17H6.28152V121.901ZM20.4908 121.901H26.7723V115.633H20.4908V121.901ZM20.4908 133.732H14.2093V140H20.4908V133.732ZM693.51 133.732V140H699.791V133.732H693.51ZM693.51 121.901V115.633H687.228V121.901H693.51ZM707.718 121.901V128.17H714V121.901H707.718ZM707.718 17.109H714V10.8403H707.718V17.109ZM693.51 17.109H687.228V23.3777H693.51V17.109ZM20.4909 12.5373H693.51V0H20.4909V12.5373ZM26.7725 15.3035V6.26866H14.2094V15.3035H26.7725ZM26.7725 17.109V15.3035H14.2094V17.109H26.7725ZM6.28152 23.3777H20.4909V10.8403H6.28152V23.3777ZM12.563 26.1445V17.109H0V26.1445H12.563ZM12.563 112.866V26.1445H0V112.866H12.563ZM12.563 121.901V112.866H0V121.901H12.563ZM20.4908 115.633H6.28152V128.17H20.4908V115.633ZM26.7723 124.698V121.901H14.2093V124.698H26.7723ZM26.7723 133.732V124.698H14.2093V133.732H26.7723ZM693.51 127.463H20.4908V140H693.51V127.463ZM687.228 124.698V133.732H699.791V124.698H687.228ZM687.228 121.901V124.698H699.791V121.901H687.228ZM707.718 115.633H693.51V128.17H707.718V115.633ZM701.437 112.866V121.901H714V112.866H701.437ZM701.437 26.1445V112.866H714V26.1445H701.437ZM701.437 17.109V26.1445H714V17.109H701.437ZM693.51 23.3777H707.718V10.8403H693.51V23.3777ZM687.228 15.3035V17.109H699.791V15.3035H687.228ZM687.228 6.26866V15.3035H699.791V6.26866H687.228Z" fill="black"/>
</g>
<path fill-rule="evenodd" clip-rule="evenodd" d="M20.4906 15.3033H693.509V26.1443H707.718V121.901H693.509V133.732H20.4906V121.901H6.28125V26.1443H20.4906V15.3033Z" fill="#9F1D00"/>
<path fill-rule="evenodd" clip-rule="evenodd" d="M20.4906 6.26868H693.509V17.109H707.718V112.866H6.28125V17.109H20.4906V6.26868ZM693.509 112.866H20.4906V124.698H693.509V112.866Z" fill="#FD3D00"/>
<path d="M87.2431 85.6716H73.2841V71.7412H66.3047V85.6716H52.3457V50.8457H66.3047V64.7761H73.2841V50.8457H87.2431V64.7761H83.7533V71.7412H87.2431V85.6716ZM125.63 85.6716H97.7123V82.189H94.2225V75.2239H104.692V78.7065H115.161V71.7412H97.7123V68.2588H94.2225V50.8457H108.182V64.7761H115.161V50.8457H129.12V82.189H125.63V85.6716ZM150.058 57.811V85.6716H136.099V50.8457H170.997V85.6716H157.038V57.811H150.058ZM177.976 50.8457H191.935V78.7065H198.915V50.8457H212.874V85.6716H181.466V82.189H177.976V50.8457ZM254.751 57.811H244.282V85.6716H230.322V57.811H219.853V50.8457H254.751V57.811ZM296.628 82.189H293.137V85.6716H261.73V50.8457H275.69V64.7761H293.137V68.2588H296.628V82.189ZM275.69 71.7412V78.7065H282.668V71.7412H275.69ZM359.443 82.189H355.953V85.6716H324.545V78.7065H345.484V71.7412H335.014V64.7761H345.484V57.811H324.545V50.8457H355.953V54.3284H359.443V64.7761H355.953V71.7412H359.443V82.189ZM401.32 85.6716H387.36V71.7412H380.382V85.6716H366.422V54.3284H369.912V50.8457H397.83V54.3284H401.32V85.6716ZM387.36 64.7761V57.811H380.382V64.7761H387.36ZM464.135 85.6716H450.176V71.7412H432.728V68.2588H429.237V50.8457H443.197V64.7761H450.176V50.8457H464.135V85.6716ZM506.012 82.189H502.522V85.6716H471.114V78.7065H492.052V71.7412H474.604V68.2588H471.114V54.3284H474.604V50.8457H502.522V54.3284H506.012V82.189ZM492.052 64.7761V57.811H485.074V64.7761H492.052ZM547.889 82.189H544.398V85.6716H512.991V78.7065H533.929V71.7412H516.481V68.2588H512.991V54.3284H516.481V50.8457H544.398V54.3284H547.889V82.189ZM533.929 64.7761V57.811H526.951V64.7761H533.929ZM589.766 82.189H586.275V85.6716H558.358V82.189H554.868V54.3284H558.358V50.8457H586.275V54.3284H589.766V82.189ZM575.806 64.7761V57.811H568.827V64.7761H575.806ZM575.806 78.7065V71.7412H568.827V78.7065H575.806ZM652.581 68.2588H649.091V71.7412H631.643V85.6716H617.683V50.8457H649.091V54.3284H652.581V68.2588ZM638.621 64.7761V57.811H631.643V64.7761H638.621Z" fill="#FDCD00"/>
<rect x="34.2031" y="25.6097" width="639.607" height="85.3659" fill="#FD3D00"/>
<g filter="url(#filter0_d_49_14538)">
<path d="M218.029 97V37H236.018V55.0176H242.023V37H260.012V61.0234H248.029V67H260.012V97H242.023V79.0117H236.018V97H218.029ZM290.012 61.0234V49.0117H284.006V61.0234H290.012ZM266.018 97V37H308V97H290.012V73.0059H284.006V97H266.018ZM338 61.0234V49.0117H331.994V61.0234H338ZM314.006 97V37H355.988V73.0059H331.994V97H314.006ZM385.988 61.0234V49.0117H379.982V61.0234H385.988ZM361.994 97V37H403.977V97H385.988V73.0059H379.982V97H361.994ZM409.982 97V85.0176H427.971V79.0117H415.959V67H409.982V37H427.971V61.0234H433.977V37H451.965V67H445.959V79.0117H439.982V85.0176H433.977V97H409.982Z" fill="#EEC30B"/>
</g>
</g>
<defs>
<filter id="filter0_d_49_14538" x="214.029" y="37" width="241.936" height="68" filterUnits="userSpaceOnUse" color-interpolation-filters="sRGB">
<feFlood flood-opacity="0" result="BackgroundImageFix"/>
<feColorMatrix in="SourceAlpha" type="matrix" values="0 0 0 0 0 0 0 0 0 0 0 0 0 0 0 0 0 0 127 0" result="hardAlpha"/>
<feOffset dy="4"/>
<feGaussianBlur stdDeviation="2"/>
<feComposite in2="hardAlpha" operator="out"/>
<feColorMatrix type="matrix" values="0 0 0 0 0 0 0 0 0 0 0 0 0 0 0 0 0 0 0.25 0"/>
<feBlend mode="normal" in2="BackgroundImageFix" result="effect1_dropShadow_49_14538"/>
<feBlend mode="normal" in="SourceGraphic" in2="effect1_dropShadow_49_14538" result="shape"/>
</filter>
<clipPath id="clip0_49_14538">
<rect width="714" height="140" fill="white"/>
</clipPath>
</defs>
</svg>
